<mxfile host="app.diagrams.net" agent="Mozilla/5.0 (Windows NT 10.0; Win64; x64) AppleWebKit/537.36 (KHTML, like Gecko) Chrome/137.0.0.0 Safari/537.36" version="27.1.6">
  <diagram name="Page-1" id="eIkMZa_lp76Nj1iwPOdv">
    <mxGraphModel grid="0" page="1" gridSize="10" guides="1" tooltips="1" connect="1" arrows="1" fold="1" pageScale="1" pageWidth="850" pageHeight="1100" math="0" shadow="0">
      <root>
        <mxCell id="0" />
        <mxCell id="1" parent="0" />
        <mxCell id="4YXkMKjSClNwFWohg29W-2" value="D" style="swimlane;startSize=0;fillColor=#D3D3D3;" vertex="1" parent="1">
          <mxGeometry x="510" y="-720" width="540" height="1110" as="geometry" />
        </mxCell>
        <mxCell id="4YXkMKjSClNwFWohg29W-3" value="&lt;b&gt;&lt;font face=&quot;Helvetica&quot; style=&quot;font-size: 18px;&quot;&gt;FRAUD&amp;nbsp; DETECTION&amp;nbsp; AND RECONCILIATION&amp;nbsp; SYSTEM&lt;/font&gt;&lt;/b&gt;" style="text;html=1;align=center;verticalAlign=middle;whiteSpace=wrap;rounded=0;" vertex="1" parent="4YXkMKjSClNwFWohg29W-2">
          <mxGeometry x="-10" y="20" width="560" height="30" as="geometry" />
        </mxCell>
        <mxCell id="4YXkMKjSClNwFWohg29W-4" value="&lt;font style=&quot;font-size: 18px;&quot;&gt;Perform Reconciliation&lt;/font&gt;" style="ellipse;whiteSpace=wrap;html=1;" vertex="1" parent="4YXkMKjSClNwFWohg29W-2">
          <mxGeometry x="150" y="120" width="215" height="60" as="geometry" />
        </mxCell>
        <mxCell id="4YXkMKjSClNwFWohg29W-5" value="&lt;font style=&quot;font-size: 18px;&quot;&gt;Analyze Reconciliation&lt;/font&gt;" style="ellipse;whiteSpace=wrap;html=1;" vertex="1" parent="4YXkMKjSClNwFWohg29W-2">
          <mxGeometry x="150" y="240" width="220" height="60" as="geometry" />
        </mxCell>
        <mxCell id="4YXkMKjSClNwFWohg29W-6" value="&lt;font style=&quot;font-size: 18px;&quot;&gt;Analyze Fraud&lt;/font&gt;" style="ellipse;whiteSpace=wrap;html=1;" vertex="1" parent="4YXkMKjSClNwFWohg29W-2">
          <mxGeometry x="155" y="350" width="220" height="60" as="geometry" />
        </mxCell>
        <mxCell id="4YXkMKjSClNwFWohg29W-7" value="&lt;font style=&quot;font-size: 18px;&quot;&gt;Generate Reports&lt;/font&gt;" style="ellipse;whiteSpace=wrap;html=1;" vertex="1" parent="4YXkMKjSClNwFWohg29W-2">
          <mxGeometry x="150" y="470" width="220" height="60" as="geometry" />
        </mxCell>
        <mxCell id="4YXkMKjSClNwFWohg29W-8" value="&lt;font style=&quot;font-size: 18px;&quot;&gt;Investigate Cases&lt;/font&gt;" style="ellipse;whiteSpace=wrap;html=1;" vertex="1" parent="4YXkMKjSClNwFWohg29W-2">
          <mxGeometry x="150" y="580" width="215" height="70" as="geometry" />
        </mxCell>
        <mxCell id="4YXkMKjSClNwFWohg29W-9" value="&lt;font style=&quot;font-size: 18px;&quot;&gt;Generate Alerts&lt;/font&gt;" style="ellipse;whiteSpace=wrap;html=1;" vertex="1" parent="4YXkMKjSClNwFWohg29W-2">
          <mxGeometry x="165" y="710" width="210" height="70" as="geometry" />
        </mxCell>
        <mxCell id="4YXkMKjSClNwFWohg29W-10" value="&lt;font style=&quot;font-size: 18px;&quot;&gt;Manage Data Ingestion&lt;/font&gt;" style="ellipse;whiteSpace=wrap;html=1;" vertex="1" parent="4YXkMKjSClNwFWohg29W-2">
          <mxGeometry x="165" y="820" width="210" height="70" as="geometry" />
        </mxCell>
        <mxCell id="4YXkMKjSClNwFWohg29W-11" value="&lt;font style=&quot;font-size: 18px;&quot;&gt;Manage System Access&lt;/font&gt;" style="ellipse;whiteSpace=wrap;html=1;" vertex="1" parent="4YXkMKjSClNwFWohg29W-2">
          <mxGeometry x="165" y="920" width="210" height="70" as="geometry" />
        </mxCell>
        <mxCell id="4YXkMKjSClNwFWohg29W-12" value="&lt;font style=&quot;font-size: 18px;&quot;&gt;Manage 2FA&lt;/font&gt;" style="ellipse;whiteSpace=wrap;html=1;" vertex="1" parent="4YXkMKjSClNwFWohg29W-2">
          <mxGeometry x="165" y="1010" width="210" height="70" as="geometry" />
        </mxCell>
        <mxCell id="4YXkMKjSClNwFWohg29W-32" value="" style="endArrow=none;dashed=1;html=1;dashPattern=1 3;strokeWidth=2;rounded=0;entryX=0;entryY=0;entryDx=0;entryDy=0;exitX=0;exitY=0.5;exitDx=0;exitDy=0;" edge="1" parent="4YXkMKjSClNwFWohg29W-2" source="4YXkMKjSClNwFWohg29W-9" target="4YXkMKjSClNwFWohg29W-4">
          <mxGeometry width="50" height="50" relative="1" as="geometry">
            <mxPoint x="-60" y="460" as="sourcePoint" />
            <mxPoint x="-10" y="410" as="targetPoint" />
            <Array as="points">
              <mxPoint x="90" y="650" />
              <mxPoint x="40" y="600" />
              <mxPoint x="-20" y="510" />
              <mxPoint x="-30" y="400" />
              <mxPoint x="-10" y="290" />
              <mxPoint x="40" y="190" />
              <mxPoint x="100" y="150" />
            </Array>
          </mxGeometry>
        </mxCell>
        <mxCell id="4YXkMKjSClNwFWohg29W-13" value="&lt;font style=&quot;font-size: 14px;&quot;&gt;Data Analyst&lt;/font&gt;&lt;div&gt;&lt;br&gt;&lt;/div&gt;" style="shape=umlActor;verticalLabelPosition=bottom;verticalAlign=top;html=1;" vertex="1" parent="1">
          <mxGeometry x="270" y="-620" width="40" height="80" as="geometry" />
        </mxCell>
        <mxCell id="4YXkMKjSClNwFWohg29W-14" value="&lt;font style=&quot;font-size: 14px;&quot;&gt;Fraud Investigator&lt;/font&gt;" style="shape=umlActor;verticalLabelPosition=bottom;verticalAlign=top;html=1;" vertex="1" parent="1">
          <mxGeometry x="280" y="-330" width="40" height="70" as="geometry" />
        </mxCell>
        <mxCell id="4YXkMKjSClNwFWohg29W-15" value="&lt;font style=&quot;font-size: 14px;&quot;&gt;Bank User&lt;/font&gt;" style="shape=umlActor;verticalLabelPosition=bottom;verticalAlign=top;html=1;" vertex="1" parent="1">
          <mxGeometry x="220" y="-71.5" width="35" height="73" as="geometry" />
        </mxCell>
        <mxCell id="4YXkMKjSClNwFWohg29W-23" value="" style="curved=1;endArrow=classic;html=1;rounded=0;entryX=0;entryY=0.5;entryDx=0;entryDy=0;" edge="1" parent="1" target="4YXkMKjSClNwFWohg29W-5">
          <mxGeometry width="50" height="50" relative="1" as="geometry">
            <mxPoint x="330" y="-570" as="sourcePoint" />
            <mxPoint x="460" y="-570" as="targetPoint" />
            <Array as="points">
              <mxPoint x="470" y="-550" />
            </Array>
          </mxGeometry>
        </mxCell>
        <mxCell id="4YXkMKjSClNwFWohg29W-27" value="" style="curved=1;endArrow=classic;html=1;rounded=0;entryX=0;entryY=0.5;entryDx=0;entryDy=0;" edge="1" parent="1" target="4YXkMKjSClNwFWohg29W-7">
          <mxGeometry width="50" height="50" relative="1" as="geometry">
            <mxPoint x="330" y="-560" as="sourcePoint" />
            <mxPoint x="510" y="-450" as="targetPoint" />
            <Array as="points">
              <mxPoint x="430" y="-370" />
              <mxPoint x="530" y="-310" />
            </Array>
          </mxGeometry>
        </mxCell>
        <mxCell id="4YXkMKjSClNwFWohg29W-29" value="" style="curved=1;endArrow=classic;html=1;rounded=0;entryX=0;entryY=0.5;entryDx=0;entryDy=0;" edge="1" parent="1" target="4YXkMKjSClNwFWohg29W-6">
          <mxGeometry width="50" height="50" relative="1" as="geometry">
            <mxPoint x="330" y="-570" as="sourcePoint" />
            <mxPoint x="510" y="-430" as="targetPoint" />
            <Array as="points">
              <mxPoint x="430" y="-470" />
            </Array>
          </mxGeometry>
        </mxCell>
        <mxCell id="4YXkMKjSClNwFWohg29W-31" value="" style="curved=1;endArrow=classic;html=1;rounded=0;entryX=0;entryY=0.5;entryDx=0;entryDy=0;" edge="1" parent="1" target="4YXkMKjSClNwFWohg29W-10">
          <mxGeometry width="50" height="50" relative="1" as="geometry">
            <mxPoint x="330" y="-540" as="sourcePoint" />
            <mxPoint x="500" y="-210" as="targetPoint" />
            <Array as="points">
              <mxPoint x="350" y="-370" />
              <mxPoint x="370" y="-300" />
              <mxPoint x="430" y="-170" />
              <mxPoint x="470" y="-30" />
              <mxPoint x="540" y="90" />
            </Array>
          </mxGeometry>
        </mxCell>
        <mxCell id="4YXkMKjSClNwFWohg29W-35" value="" style="curved=1;endArrow=classic;html=1;rounded=0;entryX=0;entryY=0.5;entryDx=0;entryDy=0;" edge="1" parent="1" target="4YXkMKjSClNwFWohg29W-6">
          <mxGeometry width="50" height="50" relative="1" as="geometry">
            <mxPoint x="340" y="-310" as="sourcePoint" />
            <mxPoint x="530" y="-410" as="targetPoint" />
            <Array as="points">
              <mxPoint x="500" y="-400" />
            </Array>
          </mxGeometry>
        </mxCell>
        <mxCell id="4YXkMKjSClNwFWohg29W-36" value="" style="curved=1;endArrow=classic;html=1;rounded=0;entryX=0;entryY=0.5;entryDx=0;entryDy=0;" edge="1" parent="1" target="4YXkMKjSClNwFWohg29W-7">
          <mxGeometry width="50" height="50" relative="1" as="geometry">
            <mxPoint x="330" y="-290" as="sourcePoint" />
            <mxPoint x="530" y="-280" as="targetPoint" />
            <Array as="points">
              <mxPoint x="510" y="-270" />
            </Array>
          </mxGeometry>
        </mxCell>
        <mxCell id="4YXkMKjSClNwFWohg29W-37" value="" style="curved=1;endArrow=classic;html=1;rounded=0;" edge="1" parent="1" target="4YXkMKjSClNwFWohg29W-8">
          <mxGeometry width="50" height="50" relative="1" as="geometry">
            <mxPoint x="330" y="-270" as="sourcePoint" />
            <mxPoint x="530" y="-230" as="targetPoint" />
            <Array as="points">
              <mxPoint x="470" y="-200" />
            </Array>
          </mxGeometry>
        </mxCell>
        <mxCell id="4YXkMKjSClNwFWohg29W-38" value="" style="curved=1;endArrow=classic;html=1;rounded=0;exitX=0;exitY=0.5;exitDx=0;exitDy=0;" edge="1" parent="1" source="4YXkMKjSClNwFWohg29W-9">
          <mxGeometry width="50" height="50" relative="1" as="geometry">
            <mxPoint x="550" y="-70" as="sourcePoint" />
            <mxPoint x="253" y="-30" as="targetPoint" />
            <Array as="points">
              <mxPoint x="400" y="-20" />
            </Array>
          </mxGeometry>
        </mxCell>
        <mxCell id="4YXkMKjSClNwFWohg29W-39" value="&lt;font style=&quot;font-size: 14px;&quot;&gt;receives&lt;/font&gt;" style="text;html=1;align=center;verticalAlign=middle;resizable=0;points=[];autosize=1;strokeColor=none;fillColor=none;rotation=10;" vertex="1" parent="1">
          <mxGeometry x="370" y="-50" width="80" height="30" as="geometry" />
        </mxCell>
        <mxCell id="4YXkMKjSClNwFWohg29W-40" value="" style="curved=1;endArrow=classic;html=1;rounded=0;entryX=0;entryY=0.5;entryDx=0;entryDy=0;" edge="1" parent="1" target="4YXkMKjSClNwFWohg29W-4">
          <mxGeometry width="50" height="50" relative="1" as="geometry">
            <mxPoint x="330" y="-580" as="sourcePoint" />
            <mxPoint x="580" y="-430" as="targetPoint" />
            <Array as="points">
              <mxPoint x="490" y="-600" />
              <mxPoint x="600" y="-580" />
            </Array>
          </mxGeometry>
        </mxCell>
        <mxCell id="4YXkMKjSClNwFWohg29W-42" value="&lt;div&gt;&lt;br&gt;&lt;/div&gt;&lt;div&gt;&lt;br&gt;&lt;/div&gt;" style="ellipse;shape=umlEntity;whiteSpace=wrap;html=1;" vertex="1" parent="1">
          <mxGeometry x="235" y="140" width="40" height="40" as="geometry" />
        </mxCell>
        <mxCell id="4YXkMKjSClNwFWohg29W-43" value="&lt;b&gt;&lt;font style=&quot;font-size: 14px;&quot;&gt;Simulated Fraud System&lt;/font&gt;&lt;/b&gt;" style="text;html=1;align=center;verticalAlign=middle;resizable=0;points=[];autosize=1;strokeColor=none;fillColor=none;" vertex="1" parent="1">
          <mxGeometry x="160" y="180" width="190" height="30" as="geometry" />
        </mxCell>
        <mxCell id="4YXkMKjSClNwFWohg29W-44" value="" style="endArrow=none;html=1;rounded=0;entryX=0;entryY=0.5;entryDx=0;entryDy=0;" edge="1" parent="1">
          <mxGeometry width="50" height="50" relative="1" as="geometry">
            <mxPoint x="290" y="175" as="sourcePoint" />
            <mxPoint x="674.9999999999995" y="140" as="targetPoint" />
          </mxGeometry>
        </mxCell>
        <mxCell id="4YXkMKjSClNwFWohg29W-45" value="&lt;font style=&quot;font-size: 14px;&quot;&gt;provides data&lt;/font&gt;" style="text;html=1;align=center;verticalAlign=middle;resizable=0;points=[];autosize=1;strokeColor=none;fillColor=none;rotation=-5;" vertex="1" parent="1">
          <mxGeometry x="380" y="125" width="110" height="30" as="geometry" />
        </mxCell>
        <mxCell id="4YXkMKjSClNwFWohg29W-46" value="&lt;div&gt;&lt;br&gt;&lt;/div&gt;&lt;div&gt;&lt;br&gt;&lt;/div&gt;" style="ellipse;shape=umlEntity;whiteSpace=wrap;html=1;" vertex="1" parent="1">
          <mxGeometry x="280" y="240" width="40" height="40" as="geometry" />
        </mxCell>
        <mxCell id="4YXkMKjSClNwFWohg29W-47" value="&lt;b&gt;&lt;font style=&quot;font-size: 14px;&quot;&gt;Core Banking System&lt;/font&gt;&lt;/b&gt;" style="text;html=1;align=center;verticalAlign=middle;resizable=0;points=[];autosize=1;strokeColor=none;fillColor=none;" vertex="1" parent="1">
          <mxGeometry x="220" y="280" width="170" height="30" as="geometry" />
        </mxCell>
        <mxCell id="4YXkMKjSClNwFWohg29W-48" value="" style="endArrow=none;html=1;rounded=0;entryX=0.404;entryY=1.015;entryDx=0;entryDy=0;entryPerimeter=0;" edge="1" parent="1" target="4YXkMKjSClNwFWohg29W-10">
          <mxGeometry width="50" height="50" relative="1" as="geometry">
            <mxPoint x="330" y="250" as="sourcePoint" />
            <mxPoint x="610" y="130" as="targetPoint" />
          </mxGeometry>
        </mxCell>
        <mxCell id="4YXkMKjSClNwFWohg29W-49" value="&lt;font style=&quot;font-size: 14px;&quot;&gt;provides data&lt;/font&gt;" style="text;html=1;align=center;verticalAlign=middle;resizable=0;points=[];autosize=1;strokeColor=none;fillColor=none;rotation=-15;" vertex="1" parent="1">
          <mxGeometry x="395" y="190" width="110" height="30" as="geometry" />
        </mxCell>
        <mxCell id="4YXkMKjSClNwFWohg29W-50" style="edgeStyle=orthogonalEdgeStyle;rounded=0;orthogonalLoop=1;jettySize=auto;html=1;exitX=0.5;exitY=1;exitDx=0;exitDy=0;" edge="1" parent="1" source="4YXkMKjSClNwFWohg29W-2" target="4YXkMKjSClNwFWohg29W-2">
          <mxGeometry relative="1" as="geometry" />
        </mxCell>
        <mxCell id="4YXkMKjSClNwFWohg29W-53" value="&lt;div&gt;&lt;br&gt;&lt;/div&gt;&lt;div&gt;&lt;br&gt;&lt;/div&gt;" style="ellipse;shape=umlEntity;whiteSpace=wrap;html=1;" vertex="1" parent="1">
          <mxGeometry x="1130" y="160" width="60" height="50" as="geometry" />
        </mxCell>
        <mxCell id="4YXkMKjSClNwFWohg29W-54" value="&lt;font style=&quot;font-size: 14px;&quot;&gt;Aegis Authenticator&lt;/font&gt;" style="text;html=1;align=center;verticalAlign=middle;resizable=0;points=[];autosize=1;strokeColor=none;fillColor=none;" vertex="1" parent="1">
          <mxGeometry x="1090" y="210" width="140" height="30" as="geometry" />
        </mxCell>
        <mxCell id="4YXkMKjSClNwFWohg29W-55" value="" style="curved=1;endArrow=classic;html=1;rounded=0;exitX=0.5;exitY=1;exitDx=0;exitDy=0;" edge="1" parent="1" source="4YXkMKjSClNwFWohg29W-12">
          <mxGeometry width="50" height="50" relative="1" as="geometry">
            <mxPoint x="840" y="-10" as="sourcePoint" />
            <mxPoint x="1160" y="240" as="targetPoint" />
            <Array as="points">
              <mxPoint x="890" y="470" />
              <mxPoint x="1170" y="390" />
            </Array>
          </mxGeometry>
        </mxCell>
        <mxCell id="4YXkMKjSClNwFWohg29W-58" value="&lt;font style=&quot;font-size: 14px;&quot;&gt;System Administrator&lt;/font&gt;" style="shape=umlActor;verticalLabelPosition=bottom;verticalAlign=top;html=1;outlineConnect=0;" vertex="1" parent="1">
          <mxGeometry x="285" y="360" width="45" height="80" as="geometry" />
        </mxCell>
        <mxCell id="4YXkMKjSClNwFWohg29W-59" value="" style="curved=1;endArrow=classic;html=1;rounded=0;entryX=0.341;entryY=0.995;entryDx=0;entryDy=0;entryPerimeter=0;" edge="1" parent="1" source="4YXkMKjSClNwFWohg29W-58" target="4YXkMKjSClNwFWohg29W-12">
          <mxGeometry width="50" height="50" relative="1" as="geometry">
            <mxPoint x="530" y="310" as="sourcePoint" />
            <mxPoint x="580" y="260" as="targetPoint" />
            <Array as="points">
              <mxPoint x="520" y="430" />
              <mxPoint x="620" y="410" />
            </Array>
          </mxGeometry>
        </mxCell>
        <mxCell id="4YXkMKjSClNwFWohg29W-60" value="" style="curved=1;endArrow=classic;html=1;rounded=0;" edge="1" parent="1" target="4YXkMKjSClNwFWohg29W-11">
          <mxGeometry width="50" height="50" relative="1" as="geometry">
            <mxPoint x="340" y="400" as="sourcePoint" />
            <mxPoint x="580" y="260" as="targetPoint" />
            <Array as="points">
              <mxPoint x="630" y="360" />
              <mxPoint x="530" y="260" />
            </Array>
          </mxGeometry>
        </mxCell>
        <mxCell id="4YXkMKjSClNwFWohg29W-62" value="" style="curved=1;endArrow=classic;html=1;rounded=0;" edge="1" parent="1">
          <mxGeometry width="50" height="50" relative="1" as="geometry">
            <mxPoint x="340" y="390" as="sourcePoint" />
            <mxPoint x="760" y="170" as="targetPoint" />
            <Array as="points">
              <mxPoint x="570" y="250" />
            </Array>
          </mxGeometry>
        </mxCell>
        <mxCell id="4YXkMKjSClNwFWohg29W-68" value="&lt;font style=&quot;font-size: 24px;&quot;&gt;System&lt;/font&gt;" style="shape=umlFrame;whiteSpace=wrap;html=1;pointerEvents=0;width=200;height=40;fillColor=#D3D3D3;" vertex="1" parent="1">
          <mxGeometry x="1585" y="-550" width="1435" height="660" as="geometry" />
        </mxCell>
        <mxCell id="4YXkMKjSClNwFWohg29W-70" value="&lt;font style=&quot;font-size: 18px;&quot;&gt;System&amp;nbsp; Administrator / Data Analyst&lt;/font&gt;" style="shape=umlFrame;whiteSpace=wrap;html=1;pointerEvents=0;width=430;height=30;" vertex="1" parent="1">
          <mxGeometry x="2070" y="-740" width="470" height="140" as="geometry" />
        </mxCell>
        <mxCell id="4YXkMKjSClNwFWohg29W-71" value="" style="ellipse;whiteSpace=wrap;html=1;aspect=fixed;fillColor=#000000;" vertex="1" parent="1">
          <mxGeometry x="2287.5" y="-790" width="30" height="30" as="geometry" />
        </mxCell>
        <mxCell id="4YXkMKjSClNwFWohg29W-72" value="" style="endArrow=classic;html=1;rounded=0;exitX=0.5;exitY=1;exitDx=0;exitDy=0;entryX=0.5;entryY=0;entryDx=0;entryDy=0;" edge="1" parent="1" source="4YXkMKjSClNwFWohg29W-71" target="4YXkMKjSClNwFWohg29W-74">
          <mxGeometry width="50" height="50" relative="1" as="geometry">
            <mxPoint x="2220" y="-530" as="sourcePoint" />
            <mxPoint x="2295" y="-710" as="targetPoint" />
          </mxGeometry>
        </mxCell>
        <mxCell id="4YXkMKjSClNwFWohg29W-74" value="&lt;font style=&quot;font-size: 18px;&quot;&gt;&lt;b&gt;Configure Data Source and Ingestion&lt;/b&gt;&lt;/font&gt;" style="rounded=1;whiteSpace=wrap;html=1;" vertex="1" parent="1">
          <mxGeometry x="2092.5" y="-680" width="420" height="60" as="geometry" />
        </mxCell>
        <mxCell id="4YXkMKjSClNwFWohg29W-75" value="" style="endArrow=classic;html=1;rounded=0;" edge="1" parent="1">
          <mxGeometry width="50" height="50" relative="1" as="geometry">
            <mxPoint x="2300" y="-620" as="sourcePoint" />
            <mxPoint x="2300" y="-510" as="targetPoint" />
          </mxGeometry>
        </mxCell>
        <mxCell id="4YXkMKjSClNwFWohg29W-76" value="&lt;font size=&quot;3&quot;&gt;&lt;b&gt;Ingest Ledger Data&lt;/b&gt;&lt;/font&gt;" style="rounded=1;whiteSpace=wrap;html=1;" vertex="1" parent="1">
          <mxGeometry x="2200" y="-520" width="200" height="50" as="geometry" />
        </mxCell>
        <mxCell id="4YXkMKjSClNwFWohg29W-77" value="" style="endArrow=classic;html=1;rounded=0;exitX=0.5;exitY=1;exitDx=0;exitDy=0;" edge="1" parent="1" source="4YXkMKjSClNwFWohg29W-76">
          <mxGeometry width="50" height="50" relative="1" as="geometry">
            <mxPoint x="2220" y="-310" as="sourcePoint" />
            <mxPoint x="2300" y="-450" as="targetPoint" />
          </mxGeometry>
        </mxCell>
        <mxCell id="4YXkMKjSClNwFWohg29W-78" value="&lt;font size=&quot;3&quot;&gt;&lt;b&gt;Execute Reconciliation&lt;/b&gt;&lt;/font&gt;" style="rounded=1;whiteSpace=wrap;html=1;" vertex="1" parent="1">
          <mxGeometry x="2200" y="-450" width="200" height="60" as="geometry" />
        </mxCell>
        <mxCell id="4YXkMKjSClNwFWohg29W-80" value="" style="endArrow=classic;html=1;rounded=0;exitX=0.5;exitY=1;exitDx=0;exitDy=0;" edge="1" parent="1" source="4YXkMKjSClNwFWohg29W-78">
          <mxGeometry width="50" height="50" relative="1" as="geometry">
            <mxPoint x="2220" y="-310" as="sourcePoint" />
            <mxPoint x="2300" y="-360" as="targetPoint" />
          </mxGeometry>
        </mxCell>
        <mxCell id="4YXkMKjSClNwFWohg29W-81" value="&lt;font size=&quot;3&quot;&gt;&lt;b&gt;Detect and Classify Discrepancies&lt;/b&gt;&lt;/font&gt;" style="rounded=1;whiteSpace=wrap;html=1;" vertex="1" parent="1">
          <mxGeometry x="2160" y="-360" width="280" height="60" as="geometry" />
        </mxCell>
        <mxCell id="4YXkMKjSClNwFWohg29W-84" value="" style="endArrow=classic;html=1;rounded=0;exitX=0.5;exitY=1;exitDx=0;exitDy=0;entryX=0.5;entryY=0;entryDx=0;entryDy=0;entryPerimeter=0;" edge="1" parent="1" source="4YXkMKjSClNwFWohg29W-81" target="4YXkMKjSClNwFWohg29W-87">
          <mxGeometry width="50" height="50" relative="1" as="geometry">
            <mxPoint x="2220" y="-160" as="sourcePoint" />
            <mxPoint x="2270" y="-210" as="targetPoint" />
          </mxGeometry>
        </mxCell>
        <mxCell id="4YXkMKjSClNwFWohg29W-87" value="&lt;font style=&quot;font-size: 18px;&quot;&gt;&lt;b&gt;Is Mismatch classified as Fraud?&lt;/b&gt;&lt;/font&gt;" style="strokeWidth=2;html=1;shape=mxgraph.flowchart.decision;whiteSpace=wrap;" vertex="1" parent="1">
          <mxGeometry x="2080" y="-270" width="440" height="60" as="geometry" />
        </mxCell>
        <mxCell id="4YXkMKjSClNwFWohg29W-90" value="" style="verticalLabelPosition=bottom;verticalAlign=top;html=1;shape=mxgraph.basic.rect;fillColor2=none;strokeWidth=1;size=20;indent=5;fillColor=#0C0C0C;" vertex="1" parent="1">
          <mxGeometry x="1630" y="-190" width="790" height="10" as="geometry" />
        </mxCell>
        <mxCell id="4YXkMKjSClNwFWohg29W-91" value="" style="endArrow=classic;html=1;rounded=0;exitX=0;exitY=0.5;exitDx=0;exitDy=0;exitPerimeter=0;" edge="1" parent="1" source="4YXkMKjSClNwFWohg29W-87">
          <mxGeometry width="50" height="50" relative="1" as="geometry">
            <mxPoint x="1870" y="-290" as="sourcePoint" />
            <mxPoint x="1969" y="-190" as="targetPoint" />
            <Array as="points">
              <mxPoint x="1970" y="-240" />
            </Array>
          </mxGeometry>
        </mxCell>
        <mxCell id="4YXkMKjSClNwFWohg29W-92" value="&lt;font style=&quot;font-size: 14px;&quot;&gt;Yes&lt;/font&gt;" style="text;html=1;align=center;verticalAlign=middle;resizable=0;points=[];autosize=1;strokeColor=none;fillColor=none;" vertex="1" parent="1">
          <mxGeometry x="2030" y="-270" width="50" height="30" as="geometry" />
        </mxCell>
        <mxCell id="4YXkMKjSClNwFWohg29W-93" value="" style="endArrow=classic;html=1;rounded=0;exitX=0.643;exitY=1.289;exitDx=0;exitDy=0;exitPerimeter=0;" edge="1" parent="1">
          <mxGeometry width="50" height="50" relative="1" as="geometry">
            <mxPoint x="2239.9999999999995" y="-177.1099999999999" as="sourcePoint" />
            <mxPoint x="2240" y="-150" as="targetPoint" />
          </mxGeometry>
        </mxCell>
        <mxCell id="4YXkMKjSClNwFWohg29W-94" value="" style="endArrow=classic;html=1;rounded=0;exitX=0.195;exitY=0.683;exitDx=0;exitDy=0;exitPerimeter=0;" edge="1" parent="1" source="4YXkMKjSClNwFWohg29W-90">
          <mxGeometry width="50" height="50" relative="1" as="geometry">
            <mxPoint x="1790" y="-180" as="sourcePoint" />
            <mxPoint x="1784" y="-150" as="targetPoint" />
          </mxGeometry>
        </mxCell>
        <mxCell id="4YXkMKjSClNwFWohg29W-95" value="&lt;font style=&quot;font-size: 18px;&quot;&gt;&lt;b style=&quot;&quot;&gt;Generate Fraud Alerts&lt;/b&gt;&lt;/font&gt;" style="rounded=1;whiteSpace=wrap;html=1;" vertex="1" parent="1">
          <mxGeometry x="1630" y="-150" width="310" height="50" as="geometry" />
        </mxCell>
        <mxCell id="4YXkMKjSClNwFWohg29W-97" value="&lt;font style=&quot;font-size: 18px;&quot;&gt;&lt;b&gt;Prepare Fraud Analysis and Recommendations&lt;/b&gt;&lt;/font&gt;" style="rounded=1;whiteSpace=wrap;html=1;" vertex="1" parent="1">
          <mxGeometry x="1990" y="-150" width="440" height="50" as="geometry" />
        </mxCell>
        <mxCell id="4YXkMKjSClNwFWohg29W-98" value="" style="verticalLabelPosition=bottom;verticalAlign=top;html=1;shape=mxgraph.basic.rect;fillColor2=none;strokeWidth=1;size=20;indent=5;fillColor=#0C0C0C;" vertex="1" parent="1">
          <mxGeometry x="1630" y="-70" width="790" height="10" as="geometry" />
        </mxCell>
        <mxCell id="4YXkMKjSClNwFWohg29W-99" value="" style="endArrow=classic;html=1;rounded=0;exitX=0.5;exitY=1;exitDx=0;exitDy=0;" edge="1" parent="1" source="4YXkMKjSClNwFWohg29W-95">
          <mxGeometry width="50" height="50" relative="1" as="geometry">
            <mxPoint x="2060" y="-60" as="sourcePoint" />
            <mxPoint x="1785" y="-70" as="targetPoint" />
          </mxGeometry>
        </mxCell>
        <mxCell id="4YXkMKjSClNwFWohg29W-100" value="" style="endArrow=classic;html=1;rounded=0;exitX=0.57;exitY=1.018;exitDx=0;exitDy=0;exitPerimeter=0;" edge="1" parent="1" source="4YXkMKjSClNwFWohg29W-97">
          <mxGeometry width="50" height="50" relative="1" as="geometry">
            <mxPoint x="1920" y="-20" as="sourcePoint" />
            <mxPoint x="2241" y="-70" as="targetPoint" />
          </mxGeometry>
        </mxCell>
        <mxCell id="4YXkMKjSClNwFWohg29W-101" value="" style="endArrow=classic;html=1;rounded=0;exitX=0.431;exitY=1.382;exitDx=0;exitDy=0;exitPerimeter=0;" edge="1" parent="1" source="4YXkMKjSClNwFWohg29W-98">
          <mxGeometry width="50" height="50" relative="1" as="geometry">
            <mxPoint x="2060" y="-60" as="sourcePoint" />
            <mxPoint x="1970" as="targetPoint" />
          </mxGeometry>
        </mxCell>
        <mxCell id="4YXkMKjSClNwFWohg29W-102" value="&lt;b&gt;&lt;font style=&quot;font-size: 18px;&quot;&gt;Notify Stakeholders&lt;/font&gt;&lt;/b&gt;" style="rounded=1;whiteSpace=wrap;html=1;" vertex="1" parent="1">
          <mxGeometry x="1870" y="1.5" width="220" height="38.5" as="geometry" />
        </mxCell>
        <mxCell id="4YXkMKjSClNwFWohg29W-103" value="" style="endArrow=classic;html=1;rounded=0;" edge="1" parent="1">
          <mxGeometry width="50" height="50" relative="1" as="geometry">
            <mxPoint x="2530" y="-240" as="sourcePoint" />
            <mxPoint x="2800" y="-150" as="targetPoint" />
            <Array as="points">
              <mxPoint x="2800" y="-240" />
            </Array>
          </mxGeometry>
        </mxCell>
        <mxCell id="4YXkMKjSClNwFWohg29W-104" value="&lt;font style=&quot;font-size: 18px;&quot;&gt;&lt;b&gt;Generate Technical Discrepancy Alerts&lt;/b&gt;&lt;/font&gt;" style="rounded=1;whiteSpace=wrap;html=1;" vertex="1" parent="1">
          <mxGeometry x="2620" y="-150" width="380" height="50" as="geometry" />
        </mxCell>
        <mxCell id="4YXkMKjSClNwFWohg29W-105" value="&lt;b&gt;&lt;font style=&quot;font-size: 18px;&quot;&gt;Notify Stakeholders&lt;/font&gt;&lt;/b&gt;" style="rounded=1;whiteSpace=wrap;html=1;" vertex="1" parent="1">
          <mxGeometry x="2700" y="1.5" width="220" height="38.5" as="geometry" />
        </mxCell>
        <mxCell id="4YXkMKjSClNwFWohg29W-106" value="" style="endArrow=classic;html=1;rounded=0;exitX=0.5;exitY=1;exitDx=0;exitDy=0;" edge="1" parent="1">
          <mxGeometry width="50" height="50" relative="1" as="geometry">
            <mxPoint x="2800" y="-98.5" as="sourcePoint" />
            <mxPoint x="2800" y="1.5" as="targetPoint" />
          </mxGeometry>
        </mxCell>
        <mxCell id="4YXkMKjSClNwFWohg29W-107" value="No" style="text;html=1;align=center;verticalAlign=middle;resizable=0;points=[];autosize=1;strokeColor=none;fillColor=none;" vertex="1" parent="1">
          <mxGeometry x="2560" y="-272" width="40" height="30" as="geometry" />
        </mxCell>
        <mxCell id="4YXkMKjSClNwFWohg29W-108" value="" style="strokeWidth=2;html=1;shape=mxgraph.flowchart.decision;whiteSpace=wrap;" vertex="1" parent="1">
          <mxGeometry x="2290" y="50" width="60" height="50" as="geometry" />
        </mxCell>
        <mxCell id="4YXkMKjSClNwFWohg29W-109" value="" style="endArrow=classic;html=1;rounded=0;entryX=0;entryY=0.5;entryDx=0;entryDy=0;entryPerimeter=0;exitX=0.45;exitY=1.063;exitDx=0;exitDy=0;exitPerimeter=0;" edge="1" parent="1" source="4YXkMKjSClNwFWohg29W-102" target="4YXkMKjSClNwFWohg29W-108">
          <mxGeometry width="50" height="50" relative="1" as="geometry">
            <mxPoint x="1980" y="60" as="sourcePoint" />
            <mxPoint x="2680" y="-130" as="targetPoint" />
            <Array as="points">
              <mxPoint x="1969" y="75" />
            </Array>
          </mxGeometry>
        </mxCell>
        <mxCell id="4YXkMKjSClNwFWohg29W-110" value="" style="endArrow=classic;html=1;rounded=0;exitX=0.453;exitY=1.063;exitDx=0;exitDy=0;exitPerimeter=0;entryX=1;entryY=0.5;entryDx=0;entryDy=0;entryPerimeter=0;" edge="1" parent="1" source="4YXkMKjSClNwFWohg29W-105" target="4YXkMKjSClNwFWohg29W-108">
          <mxGeometry width="50" height="50" relative="1" as="geometry">
            <mxPoint x="2700" y="170" as="sourcePoint" />
            <mxPoint x="2360" y="80" as="targetPoint" />
            <Array as="points">
              <mxPoint x="2800" y="75" />
            </Array>
          </mxGeometry>
        </mxCell>
        <mxCell id="4YXkMKjSClNwFWohg29W-112" value="" style="endArrow=classic;html=1;rounded=0;exitX=0.5;exitY=1;exitDx=0;exitDy=0;exitPerimeter=0;entryX=0.511;entryY=0.062;entryDx=0;entryDy=0;entryPerimeter=0;" edge="1" parent="1" source="4YXkMKjSClNwFWohg29W-108" target="4YXkMKjSClNwFWohg29W-113">
          <mxGeometry width="50" height="50" relative="1" as="geometry">
            <mxPoint x="2370" y="30" as="sourcePoint" />
            <mxPoint x="2320" y="130" as="targetPoint" />
          </mxGeometry>
        </mxCell>
        <mxCell id="4YXkMKjSClNwFWohg29W-113" value="" style="verticalLabelPosition=bottom;verticalAlign=top;html=1;shape=mxgraph.basic.rect;fillColor2=none;strokeWidth=1;size=20;indent=5;fillColor=#0C0C0C;" vertex="1" parent="1">
          <mxGeometry x="1625" y="135" width="1360" height="10" as="geometry" />
        </mxCell>
        <mxCell id="4YXkMKjSClNwFWohg29W-114" value="" style="endArrow=classic;html=1;rounded=0;exitX=0.68;exitY=1.339;exitDx=0;exitDy=0;exitPerimeter=0;" edge="1" parent="1" source="4YXkMKjSClNwFWohg29W-113">
          <mxGeometry width="50" height="50" relative="1" as="geometry">
            <mxPoint x="2560" y="270.0000000000002" as="sourcePoint" />
            <mxPoint x="2550" y="210" as="targetPoint" />
          </mxGeometry>
        </mxCell>
        <mxCell id="4YXkMKjSClNwFWohg29W-115" value="&lt;font style=&quot;font-size: 14px;&quot;&gt;&lt;b&gt;Fraud Detected?&lt;/b&gt;&lt;/font&gt;" style="strokeWidth=2;html=1;shape=mxgraph.flowchart.decision;whiteSpace=wrap;" vertex="1" parent="1">
          <mxGeometry x="2450" y="210" width="200" height="60" as="geometry" />
        </mxCell>
        <mxCell id="4YXkMKjSClNwFWohg29W-116" value="" style="endArrow=classic;html=1;rounded=0;exitX=0;exitY=0.5;exitDx=0;exitDy=0;exitPerimeter=0;" edge="1" parent="1" source="4YXkMKjSClNwFWohg29W-115">
          <mxGeometry width="50" height="50" relative="1" as="geometry">
            <mxPoint x="2440" y="170" as="sourcePoint" />
            <mxPoint x="2320" y="280" as="targetPoint" />
            <Array as="points">
              <mxPoint x="2320" y="240" />
            </Array>
          </mxGeometry>
        </mxCell>
        <mxCell id="4YXkMKjSClNwFWohg29W-117" value="" style="endArrow=classic;html=1;rounded=0;exitX=1;exitY=0.5;exitDx=0;exitDy=0;exitPerimeter=0;" edge="1" parent="1" source="4YXkMKjSClNwFWohg29W-115">
          <mxGeometry width="50" height="50" relative="1" as="geometry">
            <mxPoint x="2440" y="170" as="sourcePoint" />
            <mxPoint x="2770" y="280" as="targetPoint" />
            <Array as="points">
              <mxPoint x="2770" y="240" />
            </Array>
          </mxGeometry>
        </mxCell>
        <mxCell id="4YXkMKjSClNwFWohg29W-118" value="No" style="text;html=1;align=center;verticalAlign=middle;resizable=0;points=[];autosize=1;strokeColor=none;fillColor=none;" vertex="1" parent="1">
          <mxGeometry x="2660" y="218" width="40" height="30" as="geometry" />
        </mxCell>
        <mxCell id="4YXkMKjSClNwFWohg29W-119" value="Yes" style="text;html=1;align=center;verticalAlign=middle;resizable=0;points=[];autosize=1;strokeColor=none;fillColor=none;" vertex="1" parent="1">
          <mxGeometry x="2410" y="218" width="40" height="30" as="geometry" />
        </mxCell>
        <mxCell id="4YXkMKjSClNwFWohg29W-120" value="&lt;b&gt;&lt;font style=&quot;font-size: 14px;&quot;&gt;Fraud Investigator Analyses Dashboards&lt;/font&gt;&lt;/b&gt;" style="rounded=1;whiteSpace=wrap;html=1;" vertex="1" parent="1">
          <mxGeometry x="2180" y="280" width="330" height="30" as="geometry" />
        </mxCell>
        <mxCell id="4YXkMKjSClNwFWohg29W-121" value="&lt;b&gt;&lt;font style=&quot;font-size: 14px;&quot;&gt;Data Analyst analyses Reconciliation Dashboards&lt;/font&gt;&lt;/b&gt;" style="rounded=1;whiteSpace=wrap;html=1;" vertex="1" parent="1">
          <mxGeometry x="2570" y="280" width="360" height="30" as="geometry" />
        </mxCell>
        <mxCell id="4YXkMKjSClNwFWohg29W-122" value="" style="endArrow=classic;html=1;rounded=0;exitX=0.424;exitY=1.056;exitDx=0;exitDy=0;exitPerimeter=0;" edge="1" parent="1" source="4YXkMKjSClNwFWohg29W-120">
          <mxGeometry width="50" height="50" relative="1" as="geometry">
            <mxPoint x="2440" y="250" as="sourcePoint" />
            <mxPoint x="2320" y="350" as="targetPoint" />
          </mxGeometry>
        </mxCell>
        <mxCell id="4YXkMKjSClNwFWohg29W-123" value="" style="endArrow=classic;html=1;rounded=0;exitX=0.562;exitY=1.089;exitDx=0;exitDy=0;exitPerimeter=0;" edge="1" parent="1" source="4YXkMKjSClNwFWohg29W-121">
          <mxGeometry width="50" height="50" relative="1" as="geometry">
            <mxPoint x="2725" y="550" as="sourcePoint" />
            <mxPoint x="2772" y="350" as="targetPoint" />
          </mxGeometry>
        </mxCell>
        <mxCell id="4YXkMKjSClNwFWohg29W-124" value="&lt;font style=&quot;font-size: 14px;&quot;&gt;&lt;b&gt;Investigate High risk Transactions&lt;/b&gt;&lt;/font&gt;" style="rounded=1;whiteSpace=wrap;html=1;" vertex="1" parent="1">
          <mxGeometry x="2180" y="350" width="320" height="30" as="geometry" />
        </mxCell>
        <mxCell id="4YXkMKjSClNwFWohg29W-125" value="&lt;span style=&quot;font-size: 14px;&quot;&gt;&lt;b&gt;Resolves Technical Discrepancies&lt;/b&gt;&lt;/span&gt;" style="rounded=1;whiteSpace=wrap;html=1;" vertex="1" parent="1">
          <mxGeometry x="2600" y="350" width="320" height="30" as="geometry" />
        </mxCell>
        <mxCell id="4YXkMKjSClNwFWohg29W-126" value="&lt;span style=&quot;font-size: 14px;&quot;&gt;&lt;b&gt;Updates Investigation Status&lt;/b&gt;&lt;/span&gt;" style="rounded=1;whiteSpace=wrap;html=1;" vertex="1" parent="1">
          <mxGeometry x="2225" y="410" width="205" height="30" as="geometry" />
        </mxCell>
        <mxCell id="4YXkMKjSClNwFWohg29W-127" value="" style="endArrow=classic;html=1;rounded=0;exitX=0.44;exitY=1.016;exitDx=0;exitDy=0;exitPerimeter=0;entryX=0.471;entryY=-0.046;entryDx=0;entryDy=0;entryPerimeter=0;" edge="1" parent="1" source="4YXkMKjSClNwFWohg29W-124" target="4YXkMKjSClNwFWohg29W-126">
          <mxGeometry width="50" height="50" relative="1" as="geometry">
            <mxPoint x="2440" y="250" as="sourcePoint" />
            <mxPoint x="2320" y="410" as="targetPoint" />
          </mxGeometry>
        </mxCell>
        <mxCell id="4YXkMKjSClNwFWohg29W-128" value="" style="endArrow=classic;html=1;rounded=0;exitX=0.539;exitY=0.974;exitDx=0;exitDy=0;exitPerimeter=0;entryX=1;entryY=0.5;entryDx=0;entryDy=0;entryPerimeter=0;" edge="1" parent="1" source="4YXkMKjSClNwFWohg29W-125" target="4YXkMKjSClNwFWohg29W-130">
          <mxGeometry width="50" height="50" relative="1" as="geometry">
            <mxPoint x="2440" y="330" as="sourcePoint" />
            <mxPoint x="2580" y="480" as="targetPoint" />
            <Array as="points">
              <mxPoint x="2772" y="480" />
            </Array>
          </mxGeometry>
        </mxCell>
        <mxCell id="4YXkMKjSClNwFWohg29W-129" value="" style="endArrow=classic;html=1;rounded=0;exitX=0.5;exitY=1;exitDx=0;exitDy=0;entryX=0;entryY=0.5;entryDx=0;entryDy=0;entryPerimeter=0;" edge="1" parent="1" source="4YXkMKjSClNwFWohg29W-126" target="4YXkMKjSClNwFWohg29W-130">
          <mxGeometry width="50" height="50" relative="1" as="geometry">
            <mxPoint x="2440" y="330" as="sourcePoint" />
            <mxPoint x="2510" y="480" as="targetPoint" />
            <Array as="points">
              <mxPoint x="2328" y="480" />
            </Array>
          </mxGeometry>
        </mxCell>
        <mxCell id="4YXkMKjSClNwFWohg29W-130" value="" style="strokeWidth=2;html=1;shape=mxgraph.flowchart.decision;whiteSpace=wrap;" vertex="1" parent="1">
          <mxGeometry x="2525" y="460" width="50" height="40" as="geometry" />
        </mxCell>
        <mxCell id="4YXkMKjSClNwFWohg29W-131" value="" style="endArrow=classic;html=1;rounded=0;exitX=0.162;exitY=1.404;exitDx=0;exitDy=0;exitPerimeter=0;" edge="1" parent="1" source="4YXkMKjSClNwFWohg29W-113">
          <mxGeometry width="50" height="50" relative="1" as="geometry">
            <mxPoint x="2100" y="320" as="sourcePoint" />
            <mxPoint x="1845" y="280" as="targetPoint" />
          </mxGeometry>
        </mxCell>
        <mxCell id="4YXkMKjSClNwFWohg29W-133" value="&lt;font style=&quot;font-size: 14px;&quot;&gt;&lt;b&gt;Bank User Receives Alert&lt;/b&gt;&lt;/font&gt;" style="rounded=1;whiteSpace=wrap;html=1;" vertex="1" parent="1">
          <mxGeometry x="1750" y="280" width="190" height="30" as="geometry" />
        </mxCell>
        <mxCell id="4YXkMKjSClNwFWohg29W-134" value="" style="endArrow=classic;html=1;rounded=0;exitX=0.5;exitY=1;exitDx=0;exitDy=0;" edge="1" parent="1" source="4YXkMKjSClNwFWohg29W-133">
          <mxGeometry width="50" height="50" relative="1" as="geometry">
            <mxPoint x="2100" y="320" as="sourcePoint" />
            <mxPoint x="1845" y="520" as="targetPoint" />
          </mxGeometry>
        </mxCell>
        <mxCell id="4YXkMKjSClNwFWohg29W-135" value="" style="endArrow=classic;html=1;rounded=0;exitX=0.5;exitY=1;exitDx=0;exitDy=0;exitPerimeter=0;" edge="1" parent="1" source="4YXkMKjSClNwFWohg29W-130">
          <mxGeometry width="50" height="50" relative="1" as="geometry">
            <mxPoint x="2530" y="640" as="sourcePoint" />
            <mxPoint x="2550" y="520" as="targetPoint" />
          </mxGeometry>
        </mxCell>
        <mxCell id="4YXkMKjSClNwFWohg29W-136" value="" style="verticalLabelPosition=bottom;verticalAlign=top;html=1;shape=mxgraph.basic.rect;fillColor2=none;strokeWidth=1;size=20;indent=5;fillColor=#0C0C0C;" vertex="1" parent="1">
          <mxGeometry x="1625" y="520" width="1360" height="10" as="geometry" />
        </mxCell>
        <mxCell id="4YXkMKjSClNwFWohg29W-137" value="" style="endArrow=classic;html=1;rounded=0;exitX=0.496;exitY=1.256;exitDx=0;exitDy=0;exitPerimeter=0;" edge="1" parent="1" source="4YXkMKjSClNwFWohg29W-136">
          <mxGeometry width="50" height="50" relative="1" as="geometry">
            <mxPoint x="2410" y="660" as="sourcePoint" />
            <mxPoint x="2300" y="590" as="targetPoint" />
          </mxGeometry>
        </mxCell>
        <mxCell id="4YXkMKjSClNwFWohg29W-138" value="" style="ellipse;html=1;shape=endState;fillColor=#000000;strokeColor=#ff0000;" vertex="1" parent="1">
          <mxGeometry x="2280" y="590" width="40" height="40" as="geometry" />
        </mxCell>
        <mxCell id="4YXkMKjSClNwFWohg29W-141" value="&lt;font style=&quot;font-size: 36px;&quot;&gt;USE CASE DIAGRAM&lt;/font&gt;" style="text;html=1;align=center;verticalAlign=middle;resizable=0;points=[];autosize=1;strokeColor=none;fillColor=none;" vertex="1" parent="1">
          <mxGeometry x="590" y="-937" width="380" height="60" as="geometry" />
        </mxCell>
        <mxCell id="4YXkMKjSClNwFWohg29W-142" value="&lt;font style=&quot;font-size: 36px;&quot;&gt;ACTIVITY DIAGRAM&lt;/font&gt;" style="text;html=1;align=center;verticalAlign=middle;resizable=0;points=[];autosize=1;strokeColor=none;fillColor=none;" vertex="1" parent="1">
          <mxGeometry x="2110" y="-927" width="360" height="60" as="geometry" />
        </mxCell>
        <mxCell id="4YXkMKjSClNwFWohg29W-145" value="Text" style="text;html=1;align=center;verticalAlign=middle;resizable=0;points=[];autosize=1;strokeColor=none;fillColor=none;" vertex="1" parent="1">
          <mxGeometry x="3355" y="-332" width="50" height="30" as="geometry" />
        </mxCell>
        <UserObject label="" plantUmlData="{&#xa;  &quot;data&quot;: &quot;@startuml\nactor SystemAdmin\nactor FraudInvestigator\nactor BankUser\nactor DataAnalyst\n\nparticipant \&quot;Authentication Service\&quot; as Auth\nparticipant \&quot;Aegis Authenticator\&quot; as Aegis\nparticipant \&quot;Data Processing Module\&quot; as DataProc\nparticipant \&quot;Simulated Fraud System\&quot; as SimFraud\nparticipant \&quot;Core Banking System\&quot; as CoreBank\nparticipant \&quot;User Access Manager\&quot; as UserAccess\nparticipant \&quot;Fraud Analysis Module\&quot; as FraudAnalysis\nparticipant \&quot;Alerts &amp; Notifications\&quot; as Alerts\nparticipant \&quot;Reporting &amp; Dashboards\&quot; as Reports\n\n&#39; Interactions\nSystemAdmin -&gt; Auth: 1. configure 2FA policy\nAuth -&gt; Aegis: 2. configure 2FA\nAegis -&gt; DataProc: 3. fetch simulated data\nDataProc -&gt; SimFraud: 4. fetch simulated data\nSimFraud -&gt; CoreBank: 5. send classified transaction\nCoreBank -&gt; UserAccess: 6. manage user\nUserAccess -&gt; FraudAnalysis: 7. send alert detail\nFraudAnalysis -&gt; Alerts: 8. request fraud dashboard\nAlerts -&gt; BankUser: 9. update investigation status\nAlerts -&gt; FraudInvestigator: 10. request reconciliation dashboard\nFraudInvestigator -&gt; Reports: 11. request reconciliation dashboard\nDataAnalyst -&gt; Reports: 12. request fraud dashboard\n\n&#39; Layout adjustments for clarity\nskinparam monochrome true\nskinparam sequenceMessageAlign center\nskinparam boxPadding 10\nskinparam participantPadding 20\n\n@enduml&quot;,&#xa;  &quot;format&quot;: &quot;svg&quot;&#xa;}" id="4YXkMKjSClNwFWohg29W-147">
          <mxCell style="shape=image;noLabel=1;verticalAlign=top;aspect=fixed;imageAspect=0;image=data:image/svg+xml,PHN2ZyB4bWxucz0iaHR0cDovL3d3dy53My5vcmcvMjAwMC9zdmciIHhtbG5zOnhsaW5rPSJodHRwOi8vd3d3LnczLm9yZy8xOTk5L3hsaW5rIiBjb250ZW50U3R5bGVUeXBlPSJ0ZXh0L2NzcyIgZGF0YS1kaWFncmFtLXR5cGU9IlNFUVVFTkNFIiBoZWlnaHQ9IjUxNHB4IiBwcmVzZXJ2ZUFzcGVjdFJhdGlvPSJub25lIiBzdHlsZT0id2lkdGg6MjI3N3B4O2hlaWdodDo1MTRweDtiYWNrZ3JvdW5kOiNGRkZGRkY7IiB2ZXJzaW9uPSIxLjEiIHZpZXdCb3g9IjAgMCAyMjc3IDUxNCIgd2lkdGg9IjIyNzdweCIgem9vbUFuZFBhbj0ibWFnbmlmeSI+PGRlZnMvPjxnPjxnPjx0aXRsZT5TeXN0ZW1BZG1pbjwvdGl0bGU+PHJlY3QgZmlsbD0iIzAwMDAwMCIgZmlsbC1vcGFjaXR5PSIwLjAwMDAwIiBoZWlnaHQ9IjM1NC45Njg4IiB3aWR0aD0iOCIgeD0iNDIuNSIgeT0iNzkuOTg0NCIvPjxsaW5lIHN0eWxlPSJzdHJva2U6IzE4MTgxODtzdHJva2Utd2lkdGg6MC41O3N0cm9rZS1kYXNoYXJyYXk6NS4wLDUuMDsiIHgxPSI0NiIgeDI9IjQ2IiB5MT0iNzkuOTg0NCIgeTI9IjQzNC45NTMxIi8+PC9nPjxnPjx0aXRsZT5GcmF1ZEludmVzdGlnYXRvcjwvdGl0bGU+PHJlY3QgZmlsbD0iIzAwMDAwMCIgZmlsbC1vcGFjaXR5PSIwLjAwMDAwIiBoZWlnaHQ9IjM1NC45Njg4IiB3aWR0aD0iOCIgeD0iMTU2LjUiIHk9Ijc5Ljk4NDQiLz48bGluZSBzdHlsZT0ic3Ryb2tlOiMxODE4MTg7c3Ryb2tlLXdpZHRoOjAuNTtzdHJva2UtZGFzaGFycmF5OjUuMCw1LjA7IiB4MT0iMTYwIiB4Mj0iMTYwIiB5MT0iNzkuOTg0NCIgeTI9IjQzNC45NTMxIi8+PC9nPjxnPjx0aXRsZT5CYW5rVXNlcjwvdGl0bGU+PHJlY3QgZmlsbD0iIzAwMDAwMCIgZmlsbC1vcGFjaXR5PSIwLjAwMDAwIiBoZWlnaHQ9IjM1NC45Njg4IiB3aWR0aD0iOCIgeD0iMjYwIiB5PSI3OS45ODQ0Ii8+PGxpbmUgc3R5bGU9InN0cm9rZTojMTgxODE4O3N0cm9rZS13aWR0aDowLjU7c3Ryb2tlLWRhc2hhcnJheTo1LjAsNS4wOyIgeDE9IjI2NCIgeDI9IjI2NCIgeTE9Ijc5Ljk4NDQiIHkyPSI0MzQuOTUzMSIvPjwvZz48Zz48dGl0bGU+RGF0YUFuYWx5c3Q8L3RpdGxlPjxyZWN0IGZpbGw9IiMwMDAwMDAiIGZpbGwtb3BhY2l0eT0iMC4wMDAwMCIgaGVpZ2h0PSIzNTQuOTY4OCIgd2lkdGg9IjgiIHg9IjM0Mi41IiB5PSI3OS45ODQ0Ii8+PGxpbmUgc3R5bGU9InN0cm9rZTojMTgxODE4O3N0cm9rZS13aWR0aDowLjU7c3Ryb2tlLWRhc2hhcnJheTo1LjAsNS4wOyIgeDE9IjM0NiIgeDI9IjM0NiIgeTE9Ijc5Ljk4NDQiIHkyPSI0MzQuOTUzMSIvPjwvZz48Zz48dGl0bGU+QXV0aGVudGljYXRpb24gU2VydmljZTwvdGl0bGU+PHJlY3QgZmlsbD0iIzAwMDAwMCIgZmlsbC1vcGFjaXR5PSIwLjAwMDAwIiBoZWlnaHQ9IjM1NC45Njg4IiB3aWR0aD0iOCIgeD0iNDk4IiB5PSI3OS45ODQ0Ii8+PGxpbmUgc3R5bGU9InN0cm9rZTojMTgxODE4O3N0cm9rZS13aWR0aDowLjU7c3Ryb2tlLWRhc2hhcnJheTo1LjAsNS4wOyIgeDE9IjUwMiIgeDI9IjUwMiIgeTE9Ijc5Ljk4NDQiIHkyPSI0MzQuOTUzMSIvPjwvZz48Zz48dGl0bGU+QWVnaXMgQXV0aGVudGljYXRvcjwvdGl0bGU+PHJlY3QgZmlsbD0iIzAwMDAwMCIgZmlsbC1vcGFjaXR5PSIwLjAwMDAwIiBoZWlnaHQ9IjM1NC45Njg4IiB3aWR0aD0iOCIgeD0iNzA1LjUiIHk9Ijc5Ljk4NDQiLz48bGluZSBzdHlsZT0ic3Ryb2tlOiMxODE4MTg7c3Ryb2tlLXdpZHRoOjAuNTtzdHJva2UtZGFzaGFycmF5OjUuMCw1LjA7IiB4MT0iNzA5IiB4Mj0iNzA5IiB5MT0iNzkuOTg0NCIgeTI9IjQzNC45NTMxIi8+PC9nPjxnPjx0aXRsZT5EYXRhIFByb2Nlc3NpbmcgTW9kdWxlPC90aXRsZT48cmVjdCBmaWxsPSIjMDAwMDAwIiBmaWxsLW9wYWNpdHk9IjAuMDAwMDAiIGhlaWdodD0iMzU0Ljk2ODgiIHdpZHRoPSI4IiB4PSI5MTMiIHk9Ijc5Ljk4NDQiLz48bGluZSBzdHlsZT0ic3Ryb2tlOiMxODE4MTg7c3Ryb2tlLXdpZHRoOjAuNTtzdHJva2UtZGFzaGFycmF5OjUuMCw1LjA7IiB4MT0iOTE3IiB4Mj0iOTE3IiB5MT0iNzkuOTg0NCIgeTI9IjQzNC45NTMxIi8+PC9nPjxnPjx0aXRsZT5TaW11bGF0ZWQgRnJhdWQgU3lzdGVtPC90aXRsZT48cmVjdCBmaWxsPSIjMDAwMDAwIiBmaWxsLW9wYWNpdHk9IjAuMDAwMDAiIGhlaWdodD0iMzU0Ljk2ODgiIHdpZHRoPSI4IiB4PSIxMTMxIiB5PSI3OS45ODQ0Ii8+PGxpbmUgc3R5bGU9InN0cm9rZTojMTgxODE4O3N0cm9rZS13aWR0aDowLjU7c3Ryb2tlLWRhc2hhcnJheTo1LjAsNS4wOyIgeDE9IjExMzUiIHgyPSIxMTM1IiB5MT0iNzkuOTg0NCIgeTI9IjQzNC45NTMxIi8+PC9nPjxnPjx0aXRsZT5Db3JlIEJhbmtpbmcgU3lzdGVtPC90aXRsZT48cmVjdCBmaWxsPSIjMDAwMDAwIiBmaWxsLW9wYWNpdHk9IjAuMDAwMDAiIGhlaWdodD0iMzU0Ljk2ODgiIHdpZHRoPSI4IiB4PSIxMzUwIiB5PSI3OS45ODQ0Ii8+PGxpbmUgc3R5bGU9InN0cm9rZTojMTgxODE4O3N0cm9rZS13aWR0aDowLjU7c3Ryb2tlLWRhc2hhcnJheTo1LjAsNS4wOyIgeDE9IjEzNTMuNSIgeDI9IjEzNTMuNSIgeTE9Ijc5Ljk4NDQiIHkyPSI0MzQuOTUzMSIvPjwvZz48Zz48dGl0bGU+VXNlciBBY2Nlc3MgTWFuYWdlcjwvdGl0bGU+PHJlY3QgZmlsbD0iIzAwMDAwMCIgZmlsbC1vcGFjaXR5PSIwLjAwMDAwIiBoZWlnaHQ9IjM1NC45Njg4IiB3aWR0aD0iOCIgeD0iMTU0NyIgeT0iNzkuOTg0NCIvPjxsaW5lIHN0eWxlPSJzdHJva2U6IzE4MTgxODtzdHJva2Utd2lkdGg6MC41O3N0cm9rZS1kYXNoYXJyYXk6NS4wLDUuMDsiIHgxPSIxNTUwLjUiIHgyPSIxNTUwLjUiIHkxPSI3OS45ODQ0IiB5Mj0iNDM0Ljk1MzEiLz48L2c+PGc+PHRpdGxlPkZyYXVkIEFuYWx5c2lzIE1vZHVsZTwvdGl0bGU+PHJlY3QgZmlsbD0iIzAwMDAwMCIgZmlsbC1vcGFjaXR5PSIwLjAwMDAwIiBoZWlnaHQ9IjM1NC45Njg4IiB3aWR0aD0iOCIgeD0iMTc1MSIgeT0iNzkuOTg0NCIvPjxsaW5lIHN0eWxlPSJzdHJva2U6IzE4MTgxODtzdHJva2Utd2lkdGg6MC41O3N0cm9rZS1kYXNoYXJyYXk6NS4wLDUuMDsiIHgxPSIxNzU0LjUiIHgyPSIxNzU0LjUiIHkxPSI3OS45ODQ0IiB5Mj0iNDM0Ljk1MzEiLz48L2c+PGc+PHRpdGxlPkFsZXJ0cyAmYW1wOyBOb3RpZmljYXRpb25zPC90aXRsZT48cmVjdCBmaWxsPSIjMDAwMDAwIiBmaWxsLW9wYWNpdHk9IjAuMDAwMDAiIGhlaWdodD0iMzU0Ljk2ODgiIHdpZHRoPSI4IiB4PSIxOTY1LjUiIHk9Ijc5Ljk4NDQiLz48bGluZSBzdHlsZT0ic3Ryb2tlOiMxODE4MTg7c3Ryb2tlLXdpZHRoOjAuNTtzdHJva2UtZGFzaGFycmF5OjUuMCw1LjA7IiB4MT0iMTk2OS41IiB4Mj0iMTk2OS41IiB5MT0iNzkuOTg0NCIgeTI9IjQzNC45NTMxIi8+PC9nPjxnPjx0aXRsZT5SZXBvcnRpbmcgJmFtcDsgRGFzaGJvYXJkczwvdGl0bGU+PHJlY3QgZmlsbD0iIzAwMDAwMCIgZmlsbC1vcGFjaXR5PSIwLjAwMDAwIiBoZWlnaHQ9IjM1NC45Njg4IiB3aWR0aD0iOCIgeD0iMjE4My41IiB5PSI3OS45ODQ0Ii8+PGxpbmUgc3R5bGU9InN0cm9rZTojMTgxODE4O3N0cm9rZS13aWR0aDowLjU7c3Ryb2tlLWRhc2hhcnJheTo1LjAsNS4wOyIgeDE9IjIxODcuNSIgeDI9IjIxODcuNSIgeTE9Ijc5Ljk4NDQiIHkyPSI0MzQuOTUzMSIvPjwvZz48ZyBjbGFzcz0icGFydGljaXBhbnQgcGFydGljaXBhbnQtaGVhZCIgZGF0YS1wYXJ0aWNpcGFudD0iU3lzdGVtQWRtaW4iPjx0ZXh0IGZpbGw9IiMwMDAwMDAiIGZvbnQtZmFtaWx5PSJzYW5zLXNlcmlmIiBmb250LXNpemU9IjE0IiBsZW5ndGhBZGp1c3Q9InNwYWNpbmciIHRleHRMZW5ndGg9Ijc3IiB4PSI1IiB5PSI3OC4yMzQ0Ij5TeXN0ZW1BZG1pbjwvdGV4dD48ZWxsaXBzZSBjeD0iNDYuNSIgY3k9IjEzLjUiIGZpbGw9IiNFM0UzRTMiIHJ4PSI4IiByeT0iOCIgc3R5bGU9InN0cm9rZTojMTgxODE4O3N0cm9rZS13aWR0aDowLjU7Ii8+PHBhdGggZD0iTTQ2LjUsMjEuNSBMNDYuNSw0OC41IE0zMy41LDI5LjUgTDU5LjUsMjkuNSBNNDYuNSw0OC41IEwzMy41LDYzLjUgTTQ2LjUsNDguNSBMNTkuNSw2My41IiBmaWxsPSJub25lIiBzdHlsZT0ic3Ryb2tlOiMxODE4MTg7c3Ryb2tlLXdpZHRoOjAuNTsiLz48L2c+PGcgY2xhc3M9InBhcnRpY2lwYW50IHBhcnRpY2lwYW50LXRhaWwiIGRhdGEtcGFydGljaXBhbnQ9IlN5c3RlbUFkbWluIj48dGV4dCBmaWxsPSIjMDAwMDAwIiBmb250LWZhbWlseT0ic2Fucy1zZXJpZiIgZm9udC1zaXplPSIxNCIgbGVuZ3RoQWRqdXN0PSJzcGFjaW5nIiB0ZXh0TGVuZ3RoPSI3NyIgeD0iNSIgeT0iNDQ3LjE4NzUiPlN5c3RlbUFkbWluPC90ZXh0PjxlbGxpcHNlIGN4PSI0Ni41IiBjeT0iNDU3LjQzNzUiIGZpbGw9IiNFM0UzRTMiIHJ4PSI4IiByeT0iOCIgc3R5bGU9InN0cm9rZTojMTgxODE4O3N0cm9rZS13aWR0aDowLjU7Ii8+PHBhdGggZD0iTTQ2LjUsNDY1LjQzNzUgTDQ2LjUsNDkyLjQzNzUgTTMzLjUsNDczLjQzNzUgTDU5LjUsNDczLjQzNzUgTTQ2LjUsNDkyLjQzNzUgTDMzLjUsNTA3LjQzNzUgTTQ2LjUsNDkyLjQzNzUgTDU5LjUsNTA3LjQzNzUiIGZpbGw9Im5vbmUiIHN0eWxlPSJzdHJva2U6IzE4MTgxODtzdHJva2Utd2lkdGg6MC41OyIvPjwvZz48ZyBjbGFzcz0icGFydGljaXBhbnQgcGFydGljaXBhbnQtaGVhZCIgZGF0YS1wYXJ0aWNpcGFudD0iRnJhdWRJbnZlc3RpZ2F0b3IiPjx0ZXh0IGZpbGw9IiMwMDAwMDAiIGZvbnQtZmFtaWx5PSJzYW5zLXNlcmlmIiBmb250LXNpemU9IjE0IiBsZW5ndGhBZGp1c3Q9InNwYWNpbmciIHRleHRMZW5ndGg9IjExOSIgeD0iOTgiIHk9Ijc4LjIzNDQiPkZyYXVkSW52ZXN0aWdhdG9yPC90ZXh0PjxlbGxpcHNlIGN4PSIxNjAuNSIgY3k9IjEzLjUiIGZpbGw9IiNFM0UzRTMiIHJ4PSI4IiByeT0iOCIgc3R5bGU9InN0cm9rZTojMTgxODE4O3N0cm9rZS13aWR0aDowLjU7Ii8+PHBhdGggZD0iTTE2MC41LDIxLjUgTDE2MC41LDQ4LjUgTTE0Ny41LDI5LjUgTDE3My41LDI5LjUgTTE2MC41LDQ4LjUgTDE0Ny41LDYzLjUgTTE2MC41LDQ4LjUgTDE3My41LDYzLjUiIGZpbGw9Im5vbmUiIHN0eWxlPSJzdHJva2U6IzE4MTgxODtzdHJva2Utd2lkdGg6MC41OyIvPjwvZz48ZyBjbGFzcz0icGFydGljaXBhbnQgcGFydGljaXBhbnQtdGFpbCIgZGF0YS1wYXJ0aWNpcGFudD0iRnJhdWRJbnZlc3RpZ2F0b3IiPjx0ZXh0IGZpbGw9IiMwMDAwMDAiIGZvbnQtZmFtaWx5PSJzYW5zLXNlcmlmIiBmb250LXNpemU9IjE0IiBsZW5ndGhBZGp1c3Q9InNwYWNpbmciIHRleHRMZW5ndGg9IjExOSIgeD0iOTgiIHk9IjQ0Ny4xODc1Ij5GcmF1ZEludmVzdGlnYXRvcjwvdGV4dD48ZWxsaXBzZSBjeD0iMTYwLjUiIGN5PSI0NTcuNDM3NSIgZmlsbD0iI0UzRTNFMyIgcng9IjgiIHJ5PSI4IiBzdHlsZT0ic3Ryb2tlOiMxODE4MTg7c3Ryb2tlLXdpZHRoOjAuNTsiLz48cGF0aCBkPSJNMTYwLjUsNDY1LjQzNzUgTDE2MC41LDQ5Mi40Mzc1IE0xNDcuNSw0NzMuNDM3NSBMMTczLjUsNDczLjQzNzUgTTE2MC41LDQ5Mi40Mzc1IEwxNDcuNSw1MDcuNDM3NSBNMTYwLjUsNDkyLjQzNzUgTDE3My41LDUwNy40Mzc1IiBmaWxsPSJub25lIiBzdHlsZT0ic3Ryb2tlOiMxODE4MTg7c3Ryb2tlLXdpZHRoOjAuNTsiLz48L2c+PGcgY2xhc3M9InBhcnRpY2lwYW50IHBhcnRpY2lwYW50LWhlYWQiIGRhdGEtcGFydGljaXBhbnQ9IkJhbmtVc2VyIj48dGV4dCBmaWxsPSIjMDAwMDAwIiBmb250LWZhbWlseT0ic2Fucy1zZXJpZiIgZm9udC1zaXplPSIxNCIgbGVuZ3RoQWRqdXN0PSJzcGFjaW5nIiB0ZXh0TGVuZ3RoPSI1NiIgeD0iMjMzIiB5PSI3OC4yMzQ0Ij5CYW5rVXNlcjwvdGV4dD48ZWxsaXBzZSBjeD0iMjY0IiBjeT0iMTMuNSIgZmlsbD0iI0UzRTNFMyIgcng9IjgiIHJ5PSI4IiBzdHlsZT0ic3Ryb2tlOiMxODE4MTg7c3Ryb2tlLXdpZHRoOjAuNTsiLz48cGF0aCBkPSJNMjY0LDIxLjUgTDI2NCw0OC41IE0yNTEsMjkuNSBMMjc3LDI5LjUgTTI2NCw0OC41IEwyNTEsNjMuNSBNMjY0LDQ4LjUgTDI3Nyw2My41IiBmaWxsPSJub25lIiBzdHlsZT0ic3Ryb2tlOiMxODE4MTg7c3Ryb2tlLXdpZHRoOjAuNTsiLz48L2c+PGcgY2xhc3M9InBhcnRpY2lwYW50IHBhcnRpY2lwYW50LXRhaWwiIGRhdGEtcGFydGljaXBhbnQ9IkJhbmtVc2VyIj48dGV4dCBmaWxsPSIjMDAwMDAwIiBmb250LWZhbWlseT0ic2Fucy1zZXJpZiIgZm9udC1zaXplPSIxNCIgbGVuZ3RoQWRqdXN0PSJzcGFjaW5nIiB0ZXh0TGVuZ3RoPSI1NiIgeD0iMjMzIiB5PSI0NDcuMTg3NSI+QmFua1VzZXI8L3RleHQ+PGVsbGlwc2UgY3g9IjI2NCIgY3k9IjQ1Ny40Mzc1IiBmaWxsPSIjRTNFM0UzIiByeD0iOCIgcnk9IjgiIHN0eWxlPSJzdHJva2U6IzE4MTgxODtzdHJva2Utd2lkdGg6MC41OyIvPjxwYXRoIGQ9Ik0yNjQsNDY1LjQzNzUgTDI2NCw0OTIuNDM3NSBNMjUxLDQ3My40Mzc1IEwyNzcsNDczLjQzNzUgTTI2NCw0OTIuNDM3NSBMMjUxLDUwNy40Mzc1IE0yNjQsNDkyLjQzNzUgTDI3Nyw1MDcuNDM3NSIgZmlsbD0ibm9uZSIgc3R5bGU9InN0cm9rZTojMTgxODE4O3N0cm9rZS13aWR0aDowLjU7Ii8+PC9nPjxnIGNsYXNzPSJwYXJ0aWNpcGFudCBwYXJ0aWNpcGFudC1oZWFkIiBkYXRhLXBhcnRpY2lwYW50PSJEYXRhQW5hbHlzdCI+PHRleHQgZmlsbD0iIzAwMDAwMCIgZm9udC1mYW1pbHk9InNhbnMtc2VyaWYiIGZvbnQtc2l6ZT0iMTQiIGxlbmd0aEFkanVzdD0ic3BhY2luZyIgdGV4dExlbmd0aD0iNzciIHg9IjMwNSIgeT0iNzguMjM0NCI+RGF0YUFuYWx5c3Q8L3RleHQ+PGVsbGlwc2UgY3g9IjM0Ni41IiBjeT0iMTMuNSIgZmlsbD0iI0UzRTNFMyIgcng9IjgiIHJ5PSI4IiBzdHlsZT0ic3Ryb2tlOiMxODE4MTg7c3Ryb2tlLXdpZHRoOjAuNTsiLz48cGF0aCBkPSJNMzQ2LjUsMjEuNSBMMzQ2LjUsNDguNSBNMzMzLjUsMjkuNSBMMzU5LjUsMjkuNSBNMzQ2LjUsNDguNSBMMzMzLjUsNjMuNSBNMzQ2LjUsNDguNSBMMzU5LjUsNjMuNSIgZmlsbD0ibm9uZSIgc3R5bGU9InN0cm9rZTojMTgxODE4O3N0cm9rZS13aWR0aDowLjU7Ii8+PC9nPjxnIGNsYXNzPSJwYXJ0aWNpcGFudCBwYXJ0aWNpcGFudC10YWlsIiBkYXRhLXBhcnRpY2lwYW50PSJEYXRhQW5hbHlzdCI+PHRleHQgZmlsbD0iIzAwMDAwMCIgZm9udC1mYW1pbHk9InNhbnMtc2VyaWYiIGZvbnQtc2l6ZT0iMTQiIGxlbmd0aEFkanVzdD0ic3BhY2luZyIgdGV4dExlbmd0aD0iNzciIHg9IjMwNSIgeT0iNDQ3LjE4NzUiPkRhdGFBbmFseXN0PC90ZXh0PjxlbGxpcHNlIGN4PSIzNDYuNSIgY3k9IjQ1Ny40Mzc1IiBmaWxsPSIjRTNFM0UzIiByeD0iOCIgcnk9IjgiIHN0eWxlPSJzdHJva2U6IzE4MTgxODtzdHJva2Utd2lkdGg6MC41OyIvPjxwYXRoIGQ9Ik0zNDYuNSw0NjUuNDM3NSBMMzQ2LjUsNDkyLjQzNzUgTTMzMy41LDQ3My40Mzc1IEwzNTkuNSw0NzMuNDM3NSBNMzQ2LjUsNDkyLjQzNzUgTDMzMy41LDUwNy40Mzc1IE0zNDYuNSw0OTIuNDM3NSBMMzU5LjUsNTA3LjQzNzUiIGZpbGw9Im5vbmUiIHN0eWxlPSJzdHJva2U6IzE4MTgxODtzdHJva2Utd2lkdGg6MC41OyIvPjwvZz48ZyBjbGFzcz0icGFydGljaXBhbnQgcGFydGljaXBhbnQtaGVhZCIgZGF0YS1wYXJ0aWNpcGFudD0iQXV0aCI+PHJlY3QgZmlsbD0iI0UzRTNFMyIgaGVpZ2h0PSIyOC45ODQ0IiByeD0iMi41IiByeT0iMi41IiBzdHlsZT0ic3Ryb2tlOiMxODE4MTg7c3Ryb2tlLXdpZHRoOjAuNTsiIHdpZHRoPSIxNjgiIHg9IjQxOCIgeT0iNTAiLz48dGV4dCBmaWxsPSIjMDAwMDAwIiBmb250LWZhbWlseT0ic2Fucy1zZXJpZiIgZm9udC1zaXplPSIxNCIgbGVuZ3RoQWRqdXN0PSJzcGFjaW5nIiB0ZXh0TGVuZ3RoPSIxNTQiIHg9IjQyNSIgeT0iNzAuMjM0NCI+QXV0aGVudGljYXRpb24gU2VydmljZTwvdGV4dD48L2c+PGcgY2xhc3M9InBhcnRpY2lwYW50IHBhcnRpY2lwYW50LXRhaWwiIGRhdGEtcGFydGljaXBhbnQ9IkF1dGgiPjxyZWN0IGZpbGw9IiNFM0UzRTMiIGhlaWdodD0iMjguOTg0NCIgcng9IjIuNSIgcnk9IjIuNSIgc3R5bGU9InN0cm9rZTojMTgxODE4O3N0cm9rZS13aWR0aDowLjU7IiB3aWR0aD0iMTY4IiB4PSI0MTgiIHk9IjQzMy45NTMxIi8+PHRleHQgZmlsbD0iIzAwMDAwMCIgZm9udC1mYW1pbHk9InNhbnMtc2VyaWYiIGZvbnQtc2l6ZT0iMTQiIGxlbmd0aEFkanVzdD0ic3BhY2luZyIgdGV4dExlbmd0aD0iMTU0IiB4PSI0MjUiIHk9IjQ1NC4xODc1Ij5BdXRoZW50aWNhdGlvbiBTZXJ2aWNlPC90ZXh0PjwvZz48ZyBjbGFzcz0icGFydGljaXBhbnQgcGFydGljaXBhbnQtaGVhZCIgZGF0YS1wYXJ0aWNpcGFudD0iQWVnaXMiPjxyZWN0IGZpbGw9IiNFM0UzRTMiIGhlaWdodD0iMjguOTg0NCIgcng9IjIuNSIgcnk9IjIuNSIgc3R5bGU9InN0cm9rZTojMTgxODE4O3N0cm9rZS13aWR0aDowLjU7IiB3aWR0aD0iMTQ3IiB4PSI2MzYiIHk9IjUwIi8+PHRleHQgZmlsbD0iIzAwMDAwMCIgZm9udC1mYW1pbHk9InNhbnMtc2VyaWYiIGZvbnQtc2l6ZT0iMTQiIGxlbmd0aEFkanVzdD0ic3BhY2luZyIgdGV4dExlbmd0aD0iMTMzIiB4PSI2NDMiIHk9IjcwLjIzNDQiPkFlZ2lzIEF1dGhlbnRpY2F0b3I8L3RleHQ+PC9nPjxnIGNsYXNzPSJwYXJ0aWNpcGFudCBwYXJ0aWNpcGFudC10YWlsIiBkYXRhLXBhcnRpY2lwYW50PSJBZWdpcyI+PHJlY3QgZmlsbD0iI0UzRTNFMyIgaGVpZ2h0PSIyOC45ODQ0IiByeD0iMi41IiByeT0iMi41IiBzdHlsZT0ic3Ryb2tlOiMxODE4MTg7c3Ryb2tlLXdpZHRoOjAuNTsiIHdpZHRoPSIxNDciIHg9IjYzNiIgeT0iNDMzLjk1MzEiLz48dGV4dCBmaWxsPSIjMDAwMDAwIiBmb250LWZhbWlseT0ic2Fucy1zZXJpZiIgZm9udC1zaXplPSIxNCIgbGVuZ3RoQWRqdXN0PSJzcGFjaW5nIiB0ZXh0TGVuZ3RoPSIxMzMiIHg9IjY0MyIgeT0iNDU0LjE4NzUiPkFlZ2lzIEF1dGhlbnRpY2F0b3I8L3RleHQ+PC9nPjxnIGNsYXNzPSJwYXJ0aWNpcGFudCBwYXJ0aWNpcGFudC1oZWFkIiBkYXRhLXBhcnRpY2lwYW50PSJEYXRhUHJvYyI+PHJlY3QgZmlsbD0iI0UzRTNFMyIgaGVpZ2h0PSIyOC45ODQ0IiByeD0iMi41IiByeT0iMi41IiBzdHlsZT0ic3Ryb2tlOiMxODE4MTg7c3Ryb2tlLXdpZHRoOjAuNTsiIHdpZHRoPSIxNjgiIHg9IjgzMyIgeT0iNTAiLz48dGV4dCBmaWxsPSIjMDAwMDAwIiBmb250LWZhbWlseT0ic2Fucy1zZXJpZiIgZm9udC1zaXplPSIxNCIgbGVuZ3RoQWRqdXN0PSJzcGFjaW5nIiB0ZXh0TGVuZ3RoPSIxNTQiIHg9Ijg0MCIgeT0iNzAuMjM0NCI+RGF0YSBQcm9jZXNzaW5nIE1vZHVsZTwvdGV4dD48L2c+PGcgY2xhc3M9InBhcnRpY2lwYW50IHBhcnRpY2lwYW50LXRhaWwiIGRhdGEtcGFydGljaXBhbnQ9IkRhdGFQcm9jIj48cmVjdCBmaWxsPSIjRTNFM0UzIiBoZWlnaHQ9IjI4Ljk4NDQiIHJ4PSIyLjUiIHJ5PSIyLjUiIHN0eWxlPSJzdHJva2U6IzE4MTgxODtzdHJva2Utd2lkdGg6MC41OyIgd2lkdGg9IjE2OCIgeD0iODMzIiB5PSI0MzMuOTUzMSIvPjx0ZXh0IGZpbGw9IiMwMDAwMDAiIGZvbnQtZmFtaWx5PSJzYW5zLXNlcmlmIiBmb250LXNpemU9IjE0IiBsZW5ndGhBZGp1c3Q9InNwYWNpbmciIHRleHRMZW5ndGg9IjE1NCIgeD0iODQwIiB5PSI0NTQuMTg3NSI+RGF0YSBQcm9jZXNzaW5nIE1vZHVsZTwvdGV4dD48L2c+PGcgY2xhc3M9InBhcnRpY2lwYW50IHBhcnRpY2lwYW50LWhlYWQiIGRhdGEtcGFydGljaXBhbnQ9IlNpbUZyYXVkIj48cmVjdCBmaWxsPSIjRTNFM0UzIiBoZWlnaHQ9IjI4Ljk4NDQiIHJ4PSIyLjUiIHJ5PSIyLjUiIHN0eWxlPSJzdHJva2U6IzE4MTgxODtzdHJva2Utd2lkdGg6MC41OyIgd2lkdGg9IjE2OCIgeD0iMTA1MSIgeT0iNTAiLz48dGV4dCBmaWxsPSIjMDAwMDAwIiBmb250LWZhbWlseT0ic2Fucy1zZXJpZiIgZm9udC1zaXplPSIxNCIgbGVuZ3RoQWRqdXN0PSJzcGFjaW5nIiB0ZXh0TGVuZ3RoPSIxNTQiIHg9IjEwNTgiIHk9IjcwLjIzNDQiPlNpbXVsYXRlZCBGcmF1ZCBTeXN0ZW08L3RleHQ+PC9nPjxnIGNsYXNzPSJwYXJ0aWNpcGFudCBwYXJ0aWNpcGFudC10YWlsIiBkYXRhLXBhcnRpY2lwYW50PSJTaW1GcmF1ZCI+PHJlY3QgZmlsbD0iI0UzRTNFMyIgaGVpZ2h0PSIyOC45ODQ0IiByeD0iMi41IiByeT0iMi41IiBzdHlsZT0ic3Ryb2tlOiMxODE4MTg7c3Ryb2tlLXdpZHRoOjAuNTsiIHdpZHRoPSIxNjgiIHg9IjEwNTEiIHk9IjQzMy45NTMxIi8+PHRleHQgZmlsbD0iIzAwMDAwMCIgZm9udC1mYW1pbHk9InNhbnMtc2VyaWYiIGZvbnQtc2l6ZT0iMTQiIGxlbmd0aEFkanVzdD0ic3BhY2luZyIgdGV4dExlbmd0aD0iMTU0IiB4PSIxMDU4IiB5PSI0NTQuMTg3NSI+U2ltdWxhdGVkIEZyYXVkIFN5c3RlbTwvdGV4dD48L2c+PGcgY2xhc3M9InBhcnRpY2lwYW50IHBhcnRpY2lwYW50LWhlYWQiIGRhdGEtcGFydGljaXBhbnQ9IkNvcmVCYW5rIj48cmVjdCBmaWxsPSIjRTNFM0UzIiBoZWlnaHQ9IjI4Ljk4NDQiIHJ4PSIyLjUiIHJ5PSIyLjUiIHN0eWxlPSJzdHJva2U6IzE4MTgxODtzdHJva2Utd2lkdGg6MC41OyIgd2lkdGg9IjE0NyIgeD0iMTI4MC41IiB5PSI1MCIvPjx0ZXh0IGZpbGw9IiMwMDAwMDAiIGZvbnQtZmFtaWx5PSJzYW5zLXNlcmlmIiBmb250LXNpemU9IjE0IiBsZW5ndGhBZGp1c3Q9InNwYWNpbmciIHRleHRMZW5ndGg9IjEzMyIgeD0iMTI4Ny41IiB5PSI3MC4yMzQ0Ij5Db3JlIEJhbmtpbmcgU3lzdGVtPC90ZXh0PjwvZz48ZyBjbGFzcz0icGFydGljaXBhbnQgcGFydGljaXBhbnQtdGFpbCIgZGF0YS1wYXJ0aWNpcGFudD0iQ29yZUJhbmsiPjxyZWN0IGZpbGw9IiNFM0UzRTMiIGhlaWdodD0iMjguOTg0NCIgcng9IjIuNSIgcnk9IjIuNSIgc3R5bGU9InN0cm9rZTojMTgxODE4O3N0cm9rZS13aWR0aDowLjU7IiB3aWR0aD0iMTQ3IiB4PSIxMjgwLjUiIHk9IjQzMy45NTMxIi8+PHRleHQgZmlsbD0iIzAwMDAwMCIgZm9udC1mYW1pbHk9InNhbnMtc2VyaWYiIGZvbnQtc2l6ZT0iMTQiIGxlbmd0aEFkanVzdD0ic3BhY2luZyIgdGV4dExlbmd0aD0iMTMzIiB4PSIxMjg3LjUiIHk9IjQ1NC4xODc1Ij5Db3JlIEJhbmtpbmcgU3lzdGVtPC90ZXh0PjwvZz48ZyBjbGFzcz0icGFydGljaXBhbnQgcGFydGljaXBhbnQtaGVhZCIgZGF0YS1wYXJ0aWNpcGFudD0iVXNlckFjY2VzcyI+PHJlY3QgZmlsbD0iI0UzRTNFMyIgaGVpZ2h0PSIyOC45ODQ0IiByeD0iMi41IiByeT0iMi41IiBzdHlsZT0ic3Ryb2tlOiMxODE4MTg7c3Ryb2tlLXdpZHRoOjAuNTsiIHdpZHRoPSIxNDciIHg9IjE0NzcuNSIgeT0iNTAiLz48dGV4dCBmaWxsPSIjMDAwMDAwIiBmb250LWZhbWlseT0ic2Fucy1zZXJpZiIgZm9udC1zaXplPSIxNCIgbGVuZ3RoQWRqdXN0PSJzcGFjaW5nIiB0ZXh0TGVuZ3RoPSIxMzMiIHg9IjE0ODQuNSIgeT0iNzAuMjM0NCI+VXNlciBBY2Nlc3MgTWFuYWdlcjwvdGV4dD48L2c+PGcgY2xhc3M9InBhcnRpY2lwYW50IHBhcnRpY2lwYW50LXRhaWwiIGRhdGEtcGFydGljaXBhbnQ9IlVzZXJBY2Nlc3MiPjxyZWN0IGZpbGw9IiNFM0UzRTMiIGhlaWdodD0iMjguOTg0NCIgcng9IjIuNSIgcnk9IjIuNSIgc3R5bGU9InN0cm9rZTojMTgxODE4O3N0cm9rZS13aWR0aDowLjU7IiB3aWR0aD0iMTQ3IiB4PSIxNDc3LjUiIHk9IjQzMy45NTMxIi8+PHRleHQgZmlsbD0iIzAwMDAwMCIgZm9udC1mYW1pbHk9InNhbnMtc2VyaWYiIGZvbnQtc2l6ZT0iMTQiIGxlbmd0aEFkanVzdD0ic3BhY2luZyIgdGV4dExlbmd0aD0iMTMzIiB4PSIxNDg0LjUiIHk9IjQ1NC4xODc1Ij5Vc2VyIEFjY2VzcyBNYW5hZ2VyPC90ZXh0PjwvZz48ZyBjbGFzcz0icGFydGljaXBhbnQgcGFydGljaXBhbnQtaGVhZCIgZGF0YS1wYXJ0aWNpcGFudD0iRnJhdWRBbmFseXNpcyI+PHJlY3QgZmlsbD0iI0UzRTNFMyIgaGVpZ2h0PSIyOC45ODQ0IiByeD0iMi41IiByeT0iMi41IiBzdHlsZT0ic3Ryb2tlOiMxODE4MTg7c3Ryb2tlLXdpZHRoOjAuNTsiIHdpZHRoPSIxNjEiIHg9IjE2NzQuNSIgeT0iNTAiLz48dGV4dCBmaWxsPSIjMDAwMDAwIiBmb250LWZhbWlseT0ic2Fucy1zZXJpZiIgZm9udC1zaXplPSIxNCIgbGVuZ3RoQWRqdXN0PSJzcGFjaW5nIiB0ZXh0TGVuZ3RoPSIxNDciIHg9IjE2ODEuNSIgeT0iNzAuMjM0NCI+RnJhdWQgQW5hbHlzaXMgTW9kdWxlPC90ZXh0PjwvZz48ZyBjbGFzcz0icGFydGljaXBhbnQgcGFydGljaXBhbnQtdGFpbCIgZGF0YS1wYXJ0aWNpcGFudD0iRnJhdWRBbmFseXNpcyI+PHJlY3QgZmlsbD0iI0UzRTNFMyIgaGVpZ2h0PSIyOC45ODQ0IiByeD0iMi41IiByeT0iMi41IiBzdHlsZT0ic3Ryb2tlOiMxODE4MTg7c3Ryb2tlLXdpZHRoOjAuNTsiIHdpZHRoPSIxNjEiIHg9IjE2NzQuNSIgeT0iNDMzLjk1MzEiLz48dGV4dCBmaWxsPSIjMDAwMDAwIiBmb250LWZhbWlseT0ic2Fucy1zZXJpZiIgZm9udC1zaXplPSIxNCIgbGVuZ3RoQWRqdXN0PSJzcGFjaW5nIiB0ZXh0TGVuZ3RoPSIxNDciIHg9IjE2ODEuNSIgeT0iNDU0LjE4NzUiPkZyYXVkIEFuYWx5c2lzIE1vZHVsZTwvdGV4dD48L2c+PGcgY2xhc3M9InBhcnRpY2lwYW50IHBhcnRpY2lwYW50LWhlYWQiIGRhdGEtcGFydGljaXBhbnQ9IkFsZXJ0cyI+PHJlY3QgZmlsbD0iI0UzRTNFMyIgaGVpZ2h0PSIyOC45ODQ0IiByeD0iMi41IiByeT0iMi41IiBzdHlsZT0ic3Ryb2tlOiMxODE4MTg7c3Ryb2tlLXdpZHRoOjAuNTsiIHdpZHRoPSIxNjgiIHg9IjE4ODUuNSIgeT0iNTAiLz48dGV4dCBmaWxsPSIjMDAwMDAwIiBmb250LWZhbWlseT0ic2Fucy1zZXJpZiIgZm9udC1zaXplPSIxNCIgbGVuZ3RoQWRqdXN0PSJzcGFjaW5nIiB0ZXh0TGVuZ3RoPSIxNTQiIHg9IjE4OTIuNSIgeT0iNzAuMjM0NCI+QWxlcnRzICZhbXA7IE5vdGlmaWNhdGlvbnM8L3RleHQ+PC9nPjxnIGNsYXNzPSJwYXJ0aWNpcGFudCBwYXJ0aWNpcGFudC10YWlsIiBkYXRhLXBhcnRpY2lwYW50PSJBbGVydHMiPjxyZWN0IGZpbGw9IiNFM0UzRTMiIGhlaWdodD0iMjguOTg0NCIgcng9IjIuNSIgcnk9IjIuNSIgc3R5bGU9InN0cm9rZTojMTgxODE4O3N0cm9rZS13aWR0aDowLjU7IiB3aWR0aD0iMTY4IiB4PSIxODg1LjUiIHk9IjQzMy45NTMxIi8+PHRleHQgZmlsbD0iIzAwMDAwMCIgZm9udC1mYW1pbHk9InNhbnMtc2VyaWYiIGZvbnQtc2l6ZT0iMTQiIGxlbmd0aEFkanVzdD0ic3BhY2luZyIgdGV4dExlbmd0aD0iMTU0IiB4PSIxODkyLjUiIHk9IjQ1NC4xODc1Ij5BbGVydHMgJmFtcDsgTm90aWZpY2F0aW9uczwvdGV4dD48L2c+PGcgY2xhc3M9InBhcnRpY2lwYW50IHBhcnRpY2lwYW50LWhlYWQiIGRhdGEtcGFydGljaXBhbnQ9IlJlcG9ydHMiPjxyZWN0IGZpbGw9IiNFM0UzRTMiIGhlaWdodD0iMjguOTg0NCIgcng9IjIuNSIgcnk9IjIuNSIgc3R5bGU9InN0cm9rZTojMTgxODE4O3N0cm9rZS13aWR0aDowLjU7IiB3aWR0aD0iMTY4IiB4PSIyMTAzLjUiIHk9IjUwIi8+PHRleHQgZmlsbD0iIzAwMDAwMCIgZm9udC1mYW1pbHk9InNhbnMtc2VyaWYiIGZvbnQtc2l6ZT0iMTQiIGxlbmd0aEFkanVzdD0ic3BhY2luZyIgdGV4dExlbmd0aD0iMTU0IiB4PSIyMTEwLjUiIHk9IjcwLjIzNDQiPlJlcG9ydGluZyAmYW1wOyBEYXNoYm9hcmRzPC90ZXh0PjwvZz48ZyBjbGFzcz0icGFydGljaXBhbnQgcGFydGljaXBhbnQtdGFpbCIgZGF0YS1wYXJ0aWNpcGFudD0iUmVwb3J0cyI+PHJlY3QgZmlsbD0iI0UzRTNFMyIgaGVpZ2h0PSIyOC45ODQ0IiByeD0iMi41IiByeT0iMi41IiBzdHlsZT0ic3Ryb2tlOiMxODE4MTg7c3Ryb2tlLXdpZHRoOjAuNTsiIHdpZHRoPSIxNjgiIHg9IjIxMDMuNSIgeT0iNDMzLjk1MzEiLz48dGV4dCBmaWxsPSIjMDAwMDAwIiBmb250LWZhbWlseT0ic2Fucy1zZXJpZiIgZm9udC1zaXplPSIxNCIgbGVuZ3RoQWRqdXN0PSJzcGFjaW5nIiB0ZXh0TGVuZ3RoPSIxNTQiIHg9IjIxMTAuNSIgeT0iNDU0LjE4NzUiPlJlcG9ydGluZyAmYW1wOyBEYXNoYm9hcmRzPC90ZXh0PjwvZz48ZyBjbGFzcz0ibWVzc2FnZSIgZGF0YS1wYXJ0aWNpcGFudC0xPSJTeXN0ZW1BZG1pbiIgZGF0YS1wYXJ0aWNpcGFudC0yPSJBdXRoIj48cG9seWdvbiBmaWxsPSIjMTgxODE4IiBwb2ludHM9IjQ5MCwxMDUuODk4NCw1MDAsMTA5Ljg5ODQsNDkwLDExMy44OTg0LDQ5NCwxMDkuODk4NCIgc3R5bGU9InN0cm9rZTojMTgxODE4O3N0cm9rZS13aWR0aDoxOyIvPjxsaW5lIHN0eWxlPSJzdHJva2U6IzE4MTgxODtzdHJva2Utd2lkdGg6MTsiIHgxPSI0Ni41IiB4Mj0iNDk2IiB5MT0iMTA5Ljg5ODQiIHkyPSIxMDkuODk4NCIvPjx0ZXh0IGZpbGw9IiMwMDAwMDAiIGZvbnQtZmFtaWx5PSJzYW5zLXNlcmlmIiBmb250LXNpemU9IjEzIiBsZW5ndGhBZGp1c3Q9InNwYWNpbmciIHRleHRMZW5ndGg9IjE0OS41IiB4PSIxOTkuNSIgeT0iMTA2LjI3MzQiPjEuIGNvbmZpZ3VyZSAyRkEgcG9saWN5PC90ZXh0PjwvZz48ZyBjbGFzcz0ibWVzc2FnZSIgZGF0YS1wYXJ0aWNpcGFudC0xPSJBdXRoIiBkYXRhLXBhcnRpY2lwYW50LTI9IkFlZ2lzIj48cG9seWdvbiBmaWxsPSIjMTgxODE4IiBwb2ludHM9IjY5Ny41LDEzMy44MTI1LDcwNy41LDEzNy44MTI1LDY5Ny41LDE0MS44MTI1LDcwMS41LDEzNy44MTI1IiBzdHlsZT0ic3Ryb2tlOiMxODE4MTg7c3Ryb2tlLXdpZHRoOjE7Ii8+PGxpbmUgc3R5bGU9InN0cm9rZTojMTgxODE4O3N0cm9rZS13aWR0aDoxOyIgeDE9IjUwMiIgeDI9IjcwMy41IiB5MT0iMTM3LjgxMjUiIHkyPSIxMzcuODEyNSIvPjx0ZXh0IGZpbGw9IiMwMDAwMDAiIGZvbnQtZmFtaWx5PSJzYW5zLXNlcmlmIiBmb250LXNpemU9IjEzIiBsZW5ndGhBZGp1c3Q9InNwYWNpbmciIHRleHRMZW5ndGg9IjEwNCIgeD0iNTUzLjc1IiB5PSIxMzQuMTg3NSI+Mi4gY29uZmlndXJlIDJGQTwvdGV4dD48L2c+PGcgY2xhc3M9Im1lc3NhZ2UiIGRhdGEtcGFydGljaXBhbnQtMT0iQWVnaXMiIGRhdGEtcGFydGljaXBhbnQtMj0iRGF0YVByb2MiPjxwb2x5Z29uIGZpbGw9IiMxODE4MTgiIHBvaW50cz0iOTA1LDE2MS43MjY2LDkxNSwxNjUuNzI2Niw5MDUsMTY5LjcyNjYsOTA5LDE2NS43MjY2IiBzdHlsZT0ic3Ryb2tlOiMxODE4MTg7c3Ryb2tlLXdpZHRoOjE7Ii8+PGxpbmUgc3R5bGU9InN0cm9rZTojMTgxODE4O3N0cm9rZS13aWR0aDoxOyIgeDE9IjcwOS41IiB4Mj0iOTExIiB5MT0iMTY1LjcyNjYiIHkyPSIxNjUuNzI2NiIvPjx0ZXh0IGZpbGw9IiMwMDAwMDAiIGZvbnQtZmFtaWx5PSJzYW5zLXNlcmlmIiBmb250LXNpemU9IjEzIiBsZW5ndGhBZGp1c3Q9InNwYWNpbmciIHRleHRMZW5ndGg9IjE0OS41IiB4PSI3MzguNSIgeT0iMTYyLjEwMTYiPjMuIGZldGNoIHNpbXVsYXRlZCBkYXRhPC90ZXh0PjwvZz48ZyBjbGFzcz0ibWVzc2FnZSIgZGF0YS1wYXJ0aWNpcGFudC0xPSJEYXRhUHJvYyIgZGF0YS1wYXJ0aWNpcGFudC0yPSJTaW1GcmF1ZCI+PHBvbHlnb24gZmlsbD0iIzE4MTgxOCIgcG9pbnRzPSIxMTIzLDE4OS42NDA2LDExMzMsMTkzLjY0MDYsMTEyMywxOTcuNjQwNiwxMTI3LDE5My42NDA2IiBzdHlsZT0ic3Ryb2tlOiMxODE4MTg7c3Ryb2tlLXdpZHRoOjE7Ii8+PGxpbmUgc3R5bGU9InN0cm9rZTojMTgxODE4O3N0cm9rZS13aWR0aDoxOyIgeDE9IjkxNyIgeDI9IjExMjkiIHkxPSIxOTMuNjQwNiIgeTI9IjE5My42NDA2Ii8+PHRleHQgZmlsbD0iIzAwMDAwMCIgZm9udC1mYW1pbHk9InNhbnMtc2VyaWYiIGZvbnQtc2l6ZT0iMTMiIGxlbmd0aEFkanVzdD0ic3BhY2luZyIgdGV4dExlbmd0aD0iMTQ5LjUiIHg9Ijk1MS4yNSIgeT0iMTkwLjAxNTYiPjQuIGZldGNoIHNpbXVsYXRlZCBkYXRhPC90ZXh0PjwvZz48ZyBjbGFzcz0ibWVzc2FnZSIgZGF0YS1wYXJ0aWNpcGFudC0xPSJTaW1GcmF1ZCIgZGF0YS1wYXJ0aWNpcGFudC0yPSJDb3JlQmFuayI+PHBvbHlnb24gZmlsbD0iIzE4MTgxOCIgcG9pbnRzPSIxMzQyLDIxNy41NTQ3LDEzNTIsMjIxLjU1NDcsMTM0MiwyMjUuNTU0NywxMzQ2LDIyMS41NTQ3IiBzdHlsZT0ic3Ryb2tlOiMxODE4MTg7c3Ryb2tlLXdpZHRoOjE7Ii8+PGxpbmUgc3R5bGU9InN0cm9rZTojMTgxODE4O3N0cm9rZS13aWR0aDoxOyIgeDE9IjExMzUiIHgyPSIxMzQ4IiB5MT0iMjIxLjU1NDciIHkyPSIyMjEuNTU0NyIvPjx0ZXh0IGZpbGw9IiMwMDAwMDAiIGZvbnQtZmFtaWx5PSJzYW5zLXNlcmlmIiBmb250LXNpemU9IjEzIiBsZW5ndGhBZGp1c3Q9InNwYWNpbmciIHRleHRMZW5ndGg9IjE5NSIgeD0iMTE0NyIgeT0iMjE3LjkyOTciPjUuIHNlbmQgY2xhc3NpZmllZCB0cmFuc2FjdGlvbjwvdGV4dD48L2c+PGcgY2xhc3M9Im1lc3NhZ2UiIGRhdGEtcGFydGljaXBhbnQtMT0iQ29yZUJhbmsiIGRhdGEtcGFydGljaXBhbnQtMj0iVXNlckFjY2VzcyI+PHBvbHlnb24gZmlsbD0iIzE4MTgxOCIgcG9pbnRzPSIxNTM5LDI0NS40Njg4LDE1NDksMjQ5LjQ2ODgsMTUzOSwyNTMuNDY4OCwxNTQzLDI0OS40Njg4IiBzdHlsZT0ic3Ryb2tlOiMxODE4MTg7c3Ryb2tlLXdpZHRoOjE7Ii8+PGxpbmUgc3R5bGU9InN0cm9rZTojMTgxODE4O3N0cm9rZS13aWR0aDoxOyIgeDE9IjEzNTQiIHgyPSIxNTQ1IiB5MT0iMjQ5LjQ2ODgiIHkyPSIyNDkuNDY4OCIvPjx0ZXh0IGZpbGw9IiMwMDAwMDAiIGZvbnQtZmFtaWx5PSJzYW5zLXNlcmlmIiBmb250LXNpemU9IjEzIiBsZW5ndGhBZGp1c3Q9InNwYWNpbmciIHRleHRMZW5ndGg9IjkxIiB4PSIxNDA3IiB5PSIyNDUuODQzOCI+Ni4gbWFuYWdlIHVzZXI8L3RleHQ+PC9nPjxnIGNsYXNzPSJtZXNzYWdlIiBkYXRhLXBhcnRpY2lwYW50LTE9IlVzZXJBY2Nlc3MiIGRhdGEtcGFydGljaXBhbnQtMj0iRnJhdWRBbmFseXNpcyI+PHBvbHlnb24gZmlsbD0iIzE4MTgxOCIgcG9pbnRzPSIxNzQzLDI3My4zODI4LDE3NTMsMjc3LjM4MjgsMTc0MywyODEuMzgyOCwxNzQ3LDI3Ny4zODI4IiBzdHlsZT0ic3Ryb2tlOiMxODE4MTg7c3Ryb2tlLXdpZHRoOjE7Ii8+PGxpbmUgc3R5bGU9InN0cm9rZTojMTgxODE4O3N0cm9rZS13aWR0aDoxOyIgeDE9IjE1NTEiIHgyPSIxNzQ5IiB5MT0iMjc3LjM4MjgiIHkyPSIyNzcuMzgyOCIvPjx0ZXh0IGZpbGw9IiMwMDAwMDAiIGZvbnQtZmFtaWx5PSJzYW5zLXNlcmlmIiBmb250LXNpemU9IjEzIiBsZW5ndGhBZGp1c3Q9InNwYWNpbmciIHRleHRMZW5ndGg9IjEzMCIgeD0iMTU4OCIgeT0iMjczLjc1NzgiPjcuIHNlbmQgYWxlcnQgZGV0YWlsPC90ZXh0PjwvZz48ZyBjbGFzcz0ibWVzc2FnZSIgZGF0YS1wYXJ0aWNpcGFudC0xPSJGcmF1ZEFuYWx5c2lzIiBkYXRhLXBhcnRpY2lwYW50LTI9IkFsZXJ0cyI+PHBvbHlnb24gZmlsbD0iIzE4MTgxOCIgcG9pbnRzPSIxOTU3LjUsMzAxLjI5NjksMTk2Ny41LDMwNS4yOTY5LDE5NTcuNSwzMDkuMjk2OSwxOTYxLjUsMzA1LjI5NjkiIHN0eWxlPSJzdHJva2U6IzE4MTgxODtzdHJva2Utd2lkdGg6MTsiLz48bGluZSBzdHlsZT0ic3Ryb2tlOiMxODE4MTg7c3Ryb2tlLXdpZHRoOjE7IiB4MT0iMTc1NSIgeDI9IjE5NjMuNSIgeTE9IjMwNS4yOTY5IiB5Mj0iMzA1LjI5NjkiLz48dGV4dCBmaWxsPSIjMDAwMDAwIiBmb250LWZhbWlseT0ic2Fucy1zZXJpZiIgZm9udC1zaXplPSIxMyIgbGVuZ3RoQWRqdXN0PSJzcGFjaW5nIiB0ZXh0TGVuZ3RoPSIxNjkiIHg9IjE3NzcuNzUiIHk9IjMwMS42NzE5Ij44LiByZXF1ZXN0IGZyYXVkIGRhc2hib2FyZDwvdGV4dD48L2c+PGcgY2xhc3M9Im1lc3NhZ2UiIGRhdGEtcGFydGljaXBhbnQtMT0iQWxlcnRzIiBkYXRhLXBhcnRpY2lwYW50LTI9IkJhbmtVc2VyIj48cG9seWdvbiBmaWxsPSIjMTgxODE4IiBwb2ludHM9IjI3NSwzMjkuMjEwOSwyNjUsMzMzLjIxMDksMjc1LDMzNy4yMTA5LDI3MSwzMzMuMjEwOSIgc3R5bGU9InN0cm9rZTojMTgxODE4O3N0cm9rZS13aWR0aDoxOyIvPjxsaW5lIHN0eWxlPSJzdHJva2U6IzE4MTgxODtzdHJva2Utd2lkdGg6MTsiIHgxPSIyNjkiIHgyPSIxOTY4LjUiIHkxPSIzMzMuMjEwOSIgeTI9IjMzMy4yMTA5Ii8+PHRleHQgZmlsbD0iIzAwMDAwMCIgZm9udC1mYW1pbHk9InNhbnMtc2VyaWYiIGZvbnQtc2l6ZT0iMTMiIGxlbmd0aEFkanVzdD0ic3BhY2luZyIgdGV4dExlbmd0aD0iMTk1IiB4PSIxMDE5LjI1IiB5PSIzMjkuNTg1OSI+OS4gdXBkYXRlIGludmVzdGlnYXRpb24gc3RhdHVzPC90ZXh0PjwvZz48ZyBjbGFzcz0ibWVzc2FnZSIgZGF0YS1wYXJ0aWNpcGFudC0xPSJBbGVydHMiIGRhdGEtcGFydGljaXBhbnQtMj0iRnJhdWRJbnZlc3RpZ2F0b3IiPjxwb2x5Z29uIGZpbGw9IiMxODE4MTgiIHBvaW50cz0iMTcxLjUsMzU3LjEyNSwxNjEuNSwzNjEuMTI1LDE3MS41LDM2NS4xMjUsMTY3LjUsMzYxLjEyNSIgc3R5bGU9InN0cm9rZTojMTgxODE4O3N0cm9rZS13aWR0aDoxOyIvPjxsaW5lIHN0eWxlPSJzdHJva2U6IzE4MTgxODtzdHJva2Utd2lkdGg6MTsiIHgxPSIxNjUuNSIgeDI9IjE5NjguNSIgeTE9IjM2MS4xMjUiIHkyPSIzNjEuMTI1Ii8+PHRleHQgZmlsbD0iIzAwMDAwMCIgZm9udC1mYW1pbHk9InNhbnMtc2VyaWYiIGZvbnQtc2l6ZT0iMTMiIGxlbmd0aEFkanVzdD0ic3BhY2luZyIgdGV4dExlbmd0aD0iMjM0IiB4PSI5NDgiIHk9IjM1Ny41Ij4xMC4gcmVxdWVzdCByZWNvbmNpbGlhdGlvbiBkYXNoYm9hcmQ8L3RleHQ+PC9nPjxnIGNsYXNzPSJtZXNzYWdlIiBkYXRhLXBhcnRpY2lwYW50LTE9IkZyYXVkSW52ZXN0aWdhdG9yIiBkYXRhLXBhcnRpY2lwYW50LTI9IlJlcG9ydHMiPjxwb2x5Z29uIGZpbGw9IiMxODE4MTgiIHBvaW50cz0iMjE3NS41LDM4NS4wMzkxLDIxODUuNSwzODkuMDM5MSwyMTc1LjUsMzkzLjAzOTEsMjE3OS41LDM4OS4wMzkxIiBzdHlsZT0ic3Ryb2tlOiMxODE4MTg7c3Ryb2tlLXdpZHRoOjE7Ii8+PGxpbmUgc3R5bGU9InN0cm9rZTojMTgxODE4O3N0cm9rZS13aWR0aDoxOyIgeDE9IjE2MC41IiB4Mj0iMjE4MS41IiB5MT0iMzg5LjAzOTEiIHkyPSIzODkuMDM5MSIvPjx0ZXh0IGZpbGw9IiMwMDAwMDAiIGZvbnQtZmFtaWx5PSJzYW5zLXNlcmlmIiBmb250LXNpemU9IjEzIiBsZW5ndGhBZGp1c3Q9InNwYWNpbmciIHRleHRMZW5ndGg9IjIzNCIgeD0iMTA1NyIgeT0iMzg1LjQxNDEiPjExLiByZXF1ZXN0IHJlY29uY2lsaWF0aW9uIGRhc2hib2FyZDwvdGV4dD48L2c+PGcgY2xhc3M9Im1lc3NhZ2UiIGRhdGEtcGFydGljaXBhbnQtMT0iRGF0YUFuYWx5c3QiIGRhdGEtcGFydGljaXBhbnQtMj0iUmVwb3J0cyI+PHBvbHlnb24gZmlsbD0iIzE4MTgxOCIgcG9pbnRzPSIyMTc1LjUsNDEyLjk1MzEsMjE4NS41LDQxNi45NTMxLDIxNzUuNSw0MjAuOTUzMSwyMTc5LjUsNDE2Ljk1MzEiIHN0eWxlPSJzdHJva2U6IzE4MTgxODtzdHJva2Utd2lkdGg6MTsiLz48bGluZSBzdHlsZT0ic3Ryb2tlOiMxODE4MTg7c3Ryb2tlLXdpZHRoOjE7IiB4MT0iMzQ2LjUiIHgyPSIyMTgxLjUiIHkxPSI0MTYuOTUzMSIgeTI9IjQxNi45NTMxIi8+PHRleHQgZmlsbD0iIzAwMDAwMCIgZm9udC1mYW1pbHk9InNhbnMtc2VyaWYiIGZvbnQtc2l6ZT0iMTMiIGxlbmd0aEFkanVzdD0ic3BhY2luZyIgdGV4dExlbmd0aD0iMTc1LjUiIHg9IjExNzkuMjUiIHk9IjQxMy4zMjgxIj4xMi4gcmVxdWVzdCBmcmF1ZCBkYXNoYm9hcmQ8L3RleHQ+PC9nPjwhLS1TUkM9W1pMRlJSamltMzd0TkxuMXp3OXVNOURkVDNtRXkzR0tBQjRFbmUxXzBJaElacFBPb05PaGJ4cVRRVGNFZEFCMTdkTkQ4YUptYXdrRzN4NHluS0wtUnRaZzUwdDhKQzlqUnpxV25zSE9QNlY0bHc3eFZIdmdVdHAxWHhSM1pVQU1FNjlCTHplV2ttTE1UcXU0U2xwNVB4czFGdVQ1Z2tXQUM4REk1YzVmUnkzNzRYdzhLVjJjTDctNGtVNHFuTWpWMnBmbFNiUm4yMlJDQ3NEaS1Udlo4Yjl4Nk5lUzBmV1BpNlYzTDFuaHdiRkdwalUwMkJ6S28zQVlyYjBDeFREWElBTHRtMFlfcmZPV29DLXZ2TGx4MEpDSjVWM2VBQVM4cl9GMzlEa0RDT25kSEcydGJGLWRlLVNkYk5fREd1azcxT3AxNU5nWWVyMmt1VE9hMnNvWWZyNm0zdUZOZG1PZUFEWWxHdFpNc3BKb0h4S3FESHp6UFZMQjIzWWduZnVCalhLbUxFcmFtRUxCMWNuS3FiRkcxdWZDVFhhYXJBS0d6c0w3MXNuVkthcUJLYW5xTGw1ajE5NlQwVHlXeHFMWE1mdTBrYmp4Szk5SVdpb2lMbDV6MUZuVzZNSFJ3SjhibU9LTzU3eU9sS0FPRFhYQlFKWXFxbXBtNkJvaHVrODkwVnBCVjNaSDNrTU9vR09yRWlkWXdmMGUtaEkwVmtKeTItdEhtU1pDbk9TZm41bEJpQURjWXpWY2xHNm8zamZxanVVVEZkeUw5aWQ0SkVDTmNGckJDM2RxUGw3c3ZMendueHRab0VHNlFOcGNjZGV5eEdpRlZpckYxZmZFQVY2RXlrVFgzeHZ0TlgtMXhPa3lvcFBXZXNQc2M3SmwzUGpNVFJIcmVha01UZ0h4eXRwaXFIZFAtaXZ4WGl4a08tRXR3N20wMF0tLT48L2c+PC9zdmc+;" vertex="1" parent="1">
            <mxGeometry x="3209" y="-699" width="3282.61" height="741" as="geometry" />
          </mxCell>
        </UserObject>
        <mxCell id="ib4jQQpRKVa-YvS7ckOG-2" value="&lt;font style=&quot;font-size: 18px;&quot;&gt;COLLECT THE DATASET&lt;/font&gt;" style="rounded=1;whiteSpace=wrap;html=1;" vertex="1" parent="1">
          <mxGeometry x="389" y="1090" width="276" height="60" as="geometry" />
        </mxCell>
        <mxCell id="ib4jQQpRKVa-YvS7ckOG-3" value="" style="endArrow=classic;html=1;rounded=0;exitX=0.5;exitY=1;exitDx=0;exitDy=0;entryX=0.5;entryY=0;entryDx=0;entryDy=0;" edge="1" parent="1" source="ib4jQQpRKVa-YvS7ckOG-2" target="ib4jQQpRKVa-YvS7ckOG-4">
          <mxGeometry width="50" height="50" relative="1" as="geometry">
            <mxPoint x="489" y="1122" as="sourcePoint" />
            <mxPoint x="467" y="1195" as="targetPoint" />
          </mxGeometry>
        </mxCell>
        <mxCell id="ib4jQQpRKVa-YvS7ckOG-4" value="&lt;font style=&quot;font-size: 18px;&quot;&gt;PREPOCESSING THE DATA&lt;/font&gt;" style="rounded=1;whiteSpace=wrap;html=1;" vertex="1" parent="1">
          <mxGeometry x="348" y="1204" width="357" height="60" as="geometry" />
        </mxCell>
        <mxCell id="ib4jQQpRKVa-YvS7ckOG-6" value="" style="endArrow=classic;html=1;rounded=0;exitX=0.5;exitY=1;exitDx=0;exitDy=0;entryX=0.5;entryY=0;entryDx=0;entryDy=0;" edge="1" parent="1" source="ib4jQQpRKVa-YvS7ckOG-4" target="ib4jQQpRKVa-YvS7ckOG-7">
          <mxGeometry width="50" height="50" relative="1" as="geometry">
            <mxPoint x="489" y="1312" as="sourcePoint" />
            <mxPoint x="525" y="1331" as="targetPoint" />
          </mxGeometry>
        </mxCell>
        <mxCell id="ib4jQQpRKVa-YvS7ckOG-7" value="&lt;font style=&quot;font-size: 18px;&quot;&gt;SIMULATE A SECONDAY LEDGER FROM THE MASTER LEDGER&lt;/font&gt;" style="rounded=1;whiteSpace=wrap;html=1;" vertex="1" parent="1">
          <mxGeometry x="326.5" y="1301" width="397" height="64" as="geometry" />
        </mxCell>
        <mxCell id="ib4jQQpRKVa-YvS7ckOG-8" value="" style="endArrow=classic;html=1;rounded=0;exitX=0.5;exitY=1;exitDx=0;exitDy=0;entryX=0.5;entryY=0;entryDx=0;entryDy=0;" edge="1" parent="1" source="ib4jQQpRKVa-YvS7ckOG-7" target="ib4jQQpRKVa-YvS7ckOG-11">
          <mxGeometry width="50" height="50" relative="1" as="geometry">
            <mxPoint x="479" y="1372" as="sourcePoint" />
            <mxPoint x="525" y="1418" as="targetPoint" />
          </mxGeometry>
        </mxCell>
        <mxCell id="ib4jQQpRKVa-YvS7ckOG-11" value="&lt;span style=&quot;text-wrap-mode: nowrap;&quot;&gt;&lt;font style=&quot;font-size: 18px;&quot;&gt;USE THE RECONCILIATION RULES TO&amp;nbsp;&lt;/font&gt;&lt;/span&gt;&lt;div&gt;&lt;span style=&quot;text-wrap-mode: nowrap;&quot;&gt;&lt;font size=&quot;3&quot; style=&quot;&quot;&gt;MATCH THE FELDS IN BOTH THE LEDGERS&lt;/font&gt;&lt;/span&gt;&lt;/div&gt;" style="rounded=1;whiteSpace=wrap;html=1;" vertex="1" parent="1">
          <mxGeometry x="305" y="1418" width="443" height="66" as="geometry" />
        </mxCell>
        <mxCell id="ib4jQQpRKVa-YvS7ckOG-12" value="" style="endArrow=classic;html=1;rounded=0;exitX=0.5;exitY=1;exitDx=0;exitDy=0;entryX=0.5;entryY=0;entryDx=0;entryDy=0;" edge="1" parent="1" source="ib4jQQpRKVa-YvS7ckOG-11" target="ib4jQQpRKVa-YvS7ckOG-13">
          <mxGeometry width="50" height="50" relative="1" as="geometry">
            <mxPoint x="479" y="1546" as="sourcePoint" />
            <mxPoint x="529" y="1567" as="targetPoint" />
          </mxGeometry>
        </mxCell>
        <mxCell id="ib4jQQpRKVa-YvS7ckOG-13" value="&lt;font style=&quot;font-size: 18px;&quot;&gt;IDENTIFY KEY PERFORMANCE METRICS AND FIND THE FRADULENT TRANSACTIONS&lt;/font&gt;" style="rounded=1;whiteSpace=wrap;html=1;" vertex="1" parent="1">
          <mxGeometry x="324.5" y="1526" width="404" height="60" as="geometry" />
        </mxCell>
        <mxCell id="ib4jQQpRKVa-YvS7ckOG-14" value="" style="endArrow=classic;html=1;rounded=0;exitX=0.5;exitY=1;exitDx=0;exitDy=0;entryX=0.5;entryY=0;entryDx=0;entryDy=0;" edge="1" parent="1" source="ib4jQQpRKVa-YvS7ckOG-13" target="ib4jQQpRKVa-YvS7ckOG-15">
          <mxGeometry width="50" height="50" relative="1" as="geometry">
            <mxPoint x="479" y="1619" as="sourcePoint" />
            <mxPoint x="527" y="1633" as="targetPoint" />
          </mxGeometry>
        </mxCell>
        <mxCell id="ib4jQQpRKVa-YvS7ckOG-15" value="&lt;font style=&quot;font-size: 18px;&quot;&gt;IDENTIFY COMMON CHARACTERISTICS AND PATTERNS IN THESE TRANSACTOINS&lt;/font&gt;" style="rounded=1;whiteSpace=wrap;html=1;" vertex="1" parent="1">
          <mxGeometry x="269" y="1624" width="515" height="60" as="geometry" />
        </mxCell>
        <mxCell id="ib4jQQpRKVa-YvS7ckOG-16" value="" style="endArrow=classic;html=1;rounded=0;exitX=0.5;exitY=1;exitDx=0;exitDy=0;entryX=0.5;entryY=0;entryDx=0;entryDy=0;" edge="1" parent="1" source="ib4jQQpRKVa-YvS7ckOG-15" target="ib4jQQpRKVa-YvS7ckOG-17">
          <mxGeometry width="50" height="50" relative="1" as="geometry">
            <mxPoint x="479" y="1577" as="sourcePoint" />
            <mxPoint x="527" y="1731" as="targetPoint" />
          </mxGeometry>
        </mxCell>
        <mxCell id="ib4jQQpRKVa-YvS7ckOG-17" value="&lt;font style=&quot;font-size: 18px;&quot;&gt;FILTER THE RECORDS INTO TECHNICAL INACCURACY AND FRAUDS&lt;/font&gt;" style="rounded=1;whiteSpace=wrap;html=1;" vertex="1" parent="1">
          <mxGeometry x="336" y="1725" width="382" height="60" as="geometry" />
        </mxCell>
        <mxCell id="ib4jQQpRKVa-YvS7ckOG-18" value="&lt;font style=&quot;font-size: 18px;&quot;&gt;MAKE BOTH, MANEGERIAL AND SOFTWARE RECOMMENDATIONS BASED ON THE ANALYSIS&lt;/font&gt;" style="rounded=1;whiteSpace=wrap;html=1;" vertex="1" parent="1">
          <mxGeometry x="309" y="1830" width="437" height="60" as="geometry" />
        </mxCell>
        <mxCell id="ib4jQQpRKVa-YvS7ckOG-19" value="" style="endArrow=classic;html=1;rounded=0;entryX=0.5;entryY=0;entryDx=0;entryDy=0;exitX=0.5;exitY=1;exitDx=0;exitDy=0;" edge="1" parent="1" source="ib4jQQpRKVa-YvS7ckOG-17" target="ib4jQQpRKVa-YvS7ckOG-18">
          <mxGeometry width="50" height="50" relative="1" as="geometry">
            <mxPoint x="479" y="1798" as="sourcePoint" />
            <mxPoint x="529" y="1748" as="targetPoint" />
          </mxGeometry>
        </mxCell>
      </root>
    </mxGraphModel>
  </diagram>
</mxfile>
